<?xml version="1.0" encoding="UTF-8"?>
<!-- Generator: Adobe Illustrator 25.2.3, SVG Export Plug-In . SVG Version: 6.00 Build 0)  -->
<svg version="1.1" id="图层_1" xmlns="http://www.w3.org/2000/svg" xmlns:xlink="http://www.w3.org/1999/xlink" x="0px" y="0px" viewBox="0 0 150 143" style="enable-background:new 0 0 150 143;" xml:space="preserve">
<style type="text/css">
	.st0{fill:none;}
	.st1{fill:#5A5A5A;}
	.st2{clip-path:url(#SVGID_3_);}
	.st3{clip-path:url(#SVGID_5_);enable-background:new    ;}
	.st4{clip-path:url(#SVGID_7_);}
	.st5{clip-path:url(#SVGID_9_);}
	.st6{clip-path:url(#SVGID_11_);}
	.st7{clip-path:url(#SVGID_13_);}
	.st8{clip-path:url(#SVGID_15_);enable-background:new    ;}
	.st9{clip-path:url(#SVGID_17_);}
	.st10{clip-path:url(#SVGID_19_);}
	.st11{clip-path:url(#SVGID_22_);}
	.st12{clip-path:url(#SVGID_25_);}
	.st13{clip-path:url(#SVGID_28_);fill:none;stroke:#000000;stroke-width:0.5;stroke-miterlimit:10;}
	.st14{clip-path:url(#SVGID_30_);fill:none;stroke:#303030;stroke-width:0.5;stroke-miterlimit:10;}
	.st15{clip-path:url(#SVGID_32_);}
	.st16{clip-path:url(#SVGID_35_);}
	.st17{clip-path:url(#SVGID_37_);}
	.st18{fill:none;stroke:#303030;stroke-width:0.5;stroke-miterlimit:10;}
	.st19{clip-path:url(#SVGID_39_);}
	.st20{clip-path:url(#SVGID_41_);}
	.st21{clip-path:url(#SVGID_43_);}
	.st22{clip-path:url(#SVGID_45_);}
	.st23{clip-path:url(#SVGID_47_);fill:none;stroke:#000000;stroke-width:0.25;stroke-miterlimit:10;}
	.st24{clip-path:url(#SVGID_49_);}
	.st25{clip-path:url(#SVGID_52_);}
	.st26{clip-path:url(#SVGID_54_);}
	.st27{clip-path:url(#SVGID_56_);}
	.st28{clip-path:url(#SVGID_58_);enable-background:new    ;}
	.st29{clip-path:url(#SVGID_60_);}
	.st30{clip-path:url(#SVGID_62_);}
	.st31{clip-path:url(#SVGID_64_);}
	.st32{clip-path:url(#SVGID_66_);}
	.st33{clip-path:url(#SVGID_68_);fill:none;stroke:#000000;stroke-width:0.5;stroke-miterlimit:10;}
	.st34{clip-path:url(#SVGID_71_);fill:none;stroke:#303030;stroke-width:0.5;stroke-miterlimit:10;}
	.st35{clip-path:url(#SVGID_73_);}
	.st36{clip-path:url(#SVGID_75_);}
	.st37{clip-path:url(#SVGID_77_);}
	.st38{clip-path:url(#SVGID_79_);}
	.st39{clip-path:url(#SVGID_81_);}
	.st40{clip-path:url(#SVGID_83_);enable-background:new    ;}
	.st41{clip-path:url(#SVGID_85_);}
	.st42{clip-path:url(#SVGID_88_);}
	.st43{clip-path:url(#SVGID_90_);}
	.st44{clip-path:url(#SVGID_92_);}
	.st45{clip-path:url(#SVGID_94_);fill:none;stroke:#000000;stroke-width:0.5;stroke-miterlimit:10;}
	.st46{clip-path:url(#SVGID_96_);fill:none;stroke:#303030;stroke-width:0.5;stroke-miterlimit:10;}
	.st47{clip-path:url(#SVGID_98_);}
	.st48{clip-path:url(#SVGID_100_);}
	.st49{clip-path:url(#SVGID_102_);}
	.st50{clip-path:url(#SVGID_104_);}
	.st51{clip-path:url(#SVGID_107_);}
	.st52{clip-path:url(#SVGID_109_);enable-background:new    ;}
	.st53{clip-path:url(#SVGID_111_);}
	.st54{clip-path:url(#SVGID_113_);}
	.st55{clip-path:url(#SVGID_115_);}
	.st56{clip-path:url(#SVGID_117_);}
	.st57{clip-path:url(#SVGID_119_);fill:none;stroke:#000000;stroke-width:0.5;stroke-miterlimit:10;}
	.st58{clip-path:url(#SVGID_121_);fill:none;stroke:#303030;stroke-width:0.5;stroke-miterlimit:10;}
	.st59{clip-path:url(#SVGID_124_);}
	.st60{clip-path:url(#SVGID_126_);}
	.st61{clip-path:url(#SVGID_128_);}
	.st62{clip-path:url(#SVGID_130_);}
	.st63{clip-path:url(#SVGID_132_);}
	.st64{clip-path:url(#SVGID_134_);enable-background:new    ;}
	.st65{clip-path:url(#SVGID_137_);}
	.st66{clip-path:url(#SVGID_139_);}
	.st67{clip-path:url(#SVGID_142_);}
	.st68{clip-path:url(#SVGID_144_);}
	.st69{clip-path:url(#SVGID_146_);fill:none;stroke:#000000;stroke-width:0.5;stroke-miterlimit:10;}
	.st70{clip-path:url(#SVGID_149_);fill:none;stroke:#303030;stroke-width:0.5;stroke-miterlimit:10;}
	.st71{clip-path:url(#SVGID_151_);}
	.st72{clip-path:url(#SVGID_154_);}
	.st73{clip-path:url(#SVGID_157_);}
	.st74{clip-path:url(#SVGID_159_);}
	.st75{clip-path:url(#SVGID_161_);}
	.st76{clip-path:url(#SVGID_163_);enable-background:new    ;}
	.st77{clip-path:url(#SVGID_165_);}
	.st78{clip-path:url(#SVGID_167_);}
	.st79{clip-path:url(#SVGID_169_);}
	.st80{clip-path:url(#SVGID_171_);}
	.st81{clip-path:url(#SVGID_173_);fill:none;stroke:#000000;stroke-width:0.5;stroke-miterlimit:10;}
	.st82{clip-path:url(#SVGID_175_);fill:none;stroke:#303030;stroke-width:0.5;stroke-miterlimit:10;}
	.st83{clip-path:url(#SVGID_177_);}
	.st84{clip-path:url(#SVGID_179_);enable-background:new    ;}
	.st85{clip-path:url(#SVGID_181_);}
	.st86{clip-path:url(#SVGID_183_);}
	.st87{clip-path:url(#SVGID_185_);}
	.st88{clip-path:url(#SVGID_187_);}
	.st89{clip-path:url(#SVGID_189_);fill:none;stroke:#000000;stroke-width:0.5;stroke-miterlimit:10;}
	.st90{clip-path:url(#SVGID_191_);fill:none;stroke:#303030;stroke-width:0.5;stroke-miterlimit:10;}
	.st91{clip-path:url(#SVGID_193_);}
	.st92{clip-path:url(#SVGID_195_);}
	.st93{clip-path:url(#SVGID_197_);}
	.st94{clip-path:url(#SVGID_199_);}
	.st95{clip-path:url(#SVGID_201_);}
	.st96{clip-path:url(#SVGID_203_);}
	.st97{fill:#606060;}
	.st98{clip-path:url(#SVGID_205_);}
	.st99{clip-path:url(#SVGID_207_);}
	.st100{clip-path:url(#SVGID_209_);}
	.st101{clip-path:url(#SVGID_211_);}
	.st102{clip-path:url(#SVGID_213_);}
	.st103{fill:#303030;}
</style>
<rect x="23.6" y="1.3" class="st0" width="93" height="139"/>
<rect x="23.6" y="1.3" class="st0" width="93" height="139"/>
<rect x="23.6" y="1.3" class="st0" width="93" height="139"/>
<g>
	<g>
		<path id="SVGID_1_" class="st1" d="M121.9,24.1C93.8-3.7,48.5-3.7,20.6,24.3c-1.7,1.7-1.7,4.4,0,6c1.7,1.7,4.4,1.7,6,0    c24.6-24.6,64.5-24.7,89.2-0.1c1.6,1.7,4.3,1.8,6,0.2c1.7-1.6,1.9-4.2,0.3-6C122.1,24.3,122,24.2,121.9,24.1"/>
	</g>
	<g>
		<defs>
			<path id="SVGID_2_" d="M121.9,24.1C93.8-3.7,48.5-3.7,20.6,24.3c-1.7,1.7-1.7,4.4,0,6c1.7,1.7,4.4,1.7,6,0     c24.6-24.6,64.5-24.7,89.2-0.1c1.6,1.7,4.3,1.8,6,0.2c1.7-1.6,1.9-4.2,0.3-6C122.1,24.3,122,24.2,121.9,24.1"/>
		</defs>
		<clipPath id="SVGID_3_">
			<use xlink:href="#SVGID_2_" style="overflow:visible;"/>
		</clipPath>
		<g class="st2">
			<g>
				<defs>
					<rect id="SVGID_4_" x="25.6" y="3.3" width="89" height="135"/>
				</defs>
				<clipPath id="SVGID_5_">
					<use xlink:href="#SVGID_4_" style="overflow:visible;"/>
				</clipPath>
				<g class="st3">
					<g>
						<g>
							<defs>
								<rect id="SVGID_6_" x="23.6" y="1.3" width="93" height="139"/>
							</defs>
							<clipPath id="SVGID_7_">
								<use xlink:href="#SVGID_6_" style="overflow:visible;"/>
							</clipPath>
							<g class="st4">
								<g>
									<defs>
										<path id="SVGID_8_" d="M70.3,59.1c3.7,0,6.6-1.7,8.7-5s3.1-7.9,3.1-13.7c0-11.5-4.1-17.3-12.2-17.3            c-3.7,0-6.6,1.6-8.7,4.7s-3.2,7.4-3.3,13c0,5.6,1.1,10.1,3.3,13.4C63.5,57.5,66.5,59.1,70.3,59.1z M70.3,118.3            c4.3,0,7.7-1.8,10.4-5.4c2.6-3.6,4-8.5,4-14.5c0-6.4-1.3-11.4-4-15.2s-6.1-5.6-10.5-5.6s-7.9,1.8-10.6,5.4            c-2.7,3.6-4,8.5-4,14.5c0,6.3,1.4,11.3,4.1,15.1C62.3,116.4,65.9,118.3,70.3,118.3z M46.1,67.1c-10.7-6.7-16-16-16-27.8            c0-10.5,3.6-19,10.9-25.5c7.2-6.5,16.8-9.7,28.5-9.7c12.4,0,22.2,3.5,29.5,10.4c7.2,6.9,10.9,15.3,10.9,25            c0,12.1-5.3,21.3-15.8,27.6c13,6.7,19.4,17.2,19.4,31.4c0,11.6-4,21-11.9,28.1c-8,7.1-18.6,10.6-31.8,10.6            c-12.8,0-23.2-3.6-31.2-10.8c-8-7.2-12-16.4-12-27.8C26.5,83.7,33,73.1,46.1,67.1z"/>
									</defs>
									<clipPath id="SVGID_9_">
										<use xlink:href="#SVGID_8_" style="overflow:visible;"/>
									</clipPath>
									<g class="st5">
										<g>
											<defs>
												<rect id="SVGID_10_" x="25.6" y="3.3" width="89" height="135"/>
											</defs>
											<clipPath id="SVGID_11_">
												<use xlink:href="#SVGID_10_" style="overflow:visible;"/>
											</clipPath>
											<rect x="21.5" y="-0.9" class="st6" width="97" height="143.2"/>
										</g>
									</g>
								</g>
							</g>
						</g>
						<g>
							<defs>
								<rect id="SVGID_12_" x="23.6" y="1.3" width="93" height="139"/>
							</defs>
							<clipPath id="SVGID_13_">
								<use xlink:href="#SVGID_12_" style="overflow:visible;"/>
							</clipPath>
							<g class="st7">
								<g>
									<defs>
										<rect id="SVGID_14_" x="25.6" y="3.3" width="89" height="135"/>
									</defs>
									<clipPath id="SVGID_15_">
										<use xlink:href="#SVGID_14_" style="overflow:visible;"/>
									</clipPath>
									<g class="st8">
										<g>
											<g>
												<defs>
													<rect id="SVGID_16_" x="23.6" y="1.3" width="93" height="139"/>
												</defs>
												<clipPath id="SVGID_17_">
													<use xlink:href="#SVGID_16_" style="overflow:visible;"/>
												</clipPath>
												<g class="st9">
													<g>
														<defs>
															<path id="SVGID_18_" d="M70.3,59.1c3.7,0,6.6-1.7,8.7-5s3.1-7.9,3.1-13.7c0-11.5-4.1-17.3-12.2-17.3                 c-3.7,0-6.6,1.6-8.7,4.7s-3.2,7.4-3.3,13c0,5.6,1.1,10.1,3.3,13.4C63.5,57.5,66.5,59.1,70.3,59.1z M70.3,118.3                 c4.3,0,7.7-1.8,10.4-5.4c2.6-3.6,4-8.5,4-14.5c0-6.4-1.3-11.4-4-15.2s-6.1-5.6-10.5-5.6s-7.9,1.8-10.6,5.4                 c-2.7,3.6-4,8.5-4,14.5c0,6.3,1.4,11.3,4.1,15.1C62.3,116.4,65.9,118.3,70.3,118.3z M46.1,67.1                 c-10.7-6.7-16-16-16-27.8c0-10.5,3.6-19,10.9-25.5c7.2-6.5,16.8-9.7,28.5-9.7c12.4,0,22.2,3.5,29.5,10.4                 c7.2,6.9,10.9,15.3,10.9,25c0,12.1-5.3,21.3-15.8,27.6c13,6.7,19.4,17.2,19.4,31.4c0,11.6-4,21-11.9,28.1                 c-8,7.1-18.6,10.6-31.8,10.6c-12.8,0-23.2-3.6-31.2-10.8c-8-7.2-12-16.4-12-27.8C26.5,83.7,33,73.1,46.1,67.1z"/>
														</defs>
														<clipPath id="SVGID_19_">
															<use xlink:href="#SVGID_18_" style="overflow:visible;"/>
														</clipPath>
														<g class="st10">
															<g>
																<defs>
																	<rect id="SVGID_20_" x="25.6" y="3.3" width="89" height="135"/>
																</defs>
																<clipPath id="SVGID_22_">
																	<use xlink:href="#SVGID_20_" style="overflow:visible;"/>
																</clipPath>
																<rect x="21.5" y="-0.9" class="st11" width="97" height="143.2"/>
															</g>
														</g>
													</g>
												</g>
											</g>
											<g>
												<defs>
													<rect id="SVGID_24_" x="23.6" y="1.3" width="93" height="139"/>
												</defs>
												<clipPath id="SVGID_25_">
													<use xlink:href="#SVGID_24_" style="overflow:visible;"/>
												</clipPath>
												<g class="st12">
													<g>
														<defs>
															<rect id="SVGID_26_" x="25.6" y="3.3" width="89" height="135"/>
														</defs>
														<clipPath id="SVGID_28_">
															<use xlink:href="#SVGID_26_" style="overflow:visible;"/>
														</clipPath>
														<path class="st13" d="M70.3,59.1c3.7,0,6.6-1.7,8.7-5s3.1-7.9,3.1-13.7c0-11.5-4.1-17.3-12.2-17.3                c-3.7,0-6.6,1.6-8.7,4.7c-2.2,3.1-3.2,7.4-3.3,13c0,5.6,1.1,10.1,3.3,13.4C63.5,57.5,66.5,59.1,70.3,59.1z                 M70.3,118.3c4.3,0,7.7-1.8,10.4-5.4c2.6-3.6,4-8.5,4-14.5c0-6.4-1.3-11.4-4-15.2c-2.6-3.7-6.1-5.6-10.5-5.6                s-7.9,1.8-10.6,5.4c-2.7,3.6-4,8.5-4,14.5c0,6.3,1.4,11.3,4.1,15.1C62.3,116.4,65.9,118.3,70.3,118.3z M46.1,67.1                c-10.7-6.7-16-16-16-27.8c0-10.5,3.6-19,10.9-25.5s16.8-9.7,28.5-9.7c12.4,0,22.2,3.5,29.5,10.4                c7.2,6.9,10.9,15.3,10.9,25c0,12.1-5.3,21.3-15.8,27.6c13,6.7,19.4,17.2,19.4,31.4c0,11.6-4,21-11.9,28.1                c-8,7.1-18.6,10.6-31.8,10.6c-12.8,0-23.2-3.6-31.2-10.8c-8-7.2-12-16.4-12-27.8C26.5,83.7,33,73.1,46.1,67.1z"/>
													</g>
												</g>
											</g>
										</g>
									</g>
								</g>
								<g>
									<defs>
										<rect id="SVGID_29_" x="25.6" y="3.3" width="89" height="135"/>
									</defs>
									<clipPath id="SVGID_30_">
										<use xlink:href="#SVGID_29_" style="overflow:visible;"/>
									</clipPath>
									<path class="st14" d="M70.3,59.1c3.7,0,6.6-1.7,8.7-5s3.1-7.9,3.1-13.7c0-11.5-4.1-17.3-12.2-17.3c-3.7,0-6.6,1.6-8.7,4.7           c-2.2,3.1-3.2,7.4-3.3,13c0,5.6,1.1,10.1,3.3,13.4C63.5,57.5,66.5,59.1,70.3,59.1z M70.3,118.3c4.3,0,7.7-1.8,10.4-5.4           c2.6-3.6,4-8.5,4-14.5c0-6.4-1.3-11.4-4-15.2c-2.6-3.7-6.1-5.6-10.5-5.6s-7.9,1.8-10.6,5.4c-2.7,3.6-4,8.5-4,14.5           c0,6.3,1.4,11.3,4.1,15.1C62.3,116.4,65.9,118.3,70.3,118.3z M46.1,67.1c-10.7-6.7-16-16-16-27.8c0-10.5,3.6-19,10.9-25.5           s16.8-9.7,28.5-9.7c12.4,0,22.2,3.5,29.5,10.4c7.2,6.9,10.9,15.3,10.9,25c0,12.1-5.3,21.3-15.8,27.6           c13,6.7,19.4,17.2,19.4,31.4c0,11.6-4,21-11.9,28.1c-8,7.1-18.6,10.6-31.8,10.6c-12.8,0-23.2-3.6-31.2-10.8           c-8-7.2-12-16.4-12-27.8C26.5,83.7,33,73.1,46.1,67.1z"/>
								</g>
							</g>
						</g>
					</g>
				</g>
			</g>
		</g>
	</g>
</g>
<g>
	<g>
		<path id="SVGID_21_" class="st1" d="M93.9,89.2c1.1-1.1,1.5-2.7,1.1-4.1c-0.4-1.5-1.5-2.6-3-3s-3.1,0-4.1,1.1    c-9.1,9.1-24,9.1-33.1,0c-1.7-1.7-4.4-1.7-6,0c-1.7,1.7-1.7,4.4,0,6c6,6,14.1,9.4,22.6,9.4S87.9,95.2,93.9,89.2"/>
	</g>
	<g>
		<defs>
			<path id="SVGID_31_" d="M93.9,89.2c1.1-1.1,1.5-2.7,1.1-4.1c-0.4-1.5-1.5-2.6-3-3s-3.1,0-4.1,1.1c-9.1,9.1-24,9.1-33.1,0     c-1.7-1.7-4.4-1.7-6,0c-1.7,1.7-1.7,4.4,0,6c6,6,14.1,9.4,22.6,9.4S87.9,95.2,93.9,89.2"/>
		</defs>
		<clipPath id="SVGID_32_">
			<use xlink:href="#SVGID_31_" style="overflow:visible;"/>
		</clipPath>
		<g class="st15">
			<g>
				<defs>
					<path id="SVGID_34_" d="M70.3,59.1c3.7,0,6.6-1.7,8.7-5s3.1-7.9,3.1-13.7c0-11.5-4.1-17.3-12.2-17.3c-3.7,0-6.6,1.6-8.7,4.7       s-3.2,7.4-3.3,13c0,5.6,1.1,10.1,3.3,13.4C63.5,57.5,66.5,59.1,70.3,59.1z M70.3,118.3c4.3,0,7.7-1.8,10.4-5.4       c2.6-3.6,4-8.5,4-14.5c0-6.4-1.3-11.4-4-15.2s-6.1-5.6-10.5-5.6s-7.9,1.8-10.6,5.4c-2.7,3.6-4,8.5-4,14.5       c0,6.3,1.4,11.3,4.1,15.1C62.3,116.4,65.9,118.3,70.3,118.3z M46.1,67.1c-10.7-6.7-16-16-16-27.8c0-10.5,3.6-19,10.9-25.5       c7.2-6.5,16.8-9.7,28.5-9.7c12.4,0,22.2,3.5,29.5,10.4c7.2,6.9,10.9,15.3,10.9,25c0,12.1-5.3,21.3-15.8,27.6       c13,6.7,19.4,17.2,19.4,31.4c0,11.6-4,21-11.9,28.1c-8,7.1-18.6,10.6-31.8,10.6c-12.8,0-23.2-3.6-31.2-10.8       c-8-7.2-12-16.4-12-27.8C26.5,83.7,33,73.1,46.1,67.1z"/>
				</defs>
				<clipPath id="SVGID_35_">
					<use xlink:href="#SVGID_34_" style="overflow:visible;"/>
				</clipPath>
				<g class="st16">
					<g>
						<defs>
							<rect id="SVGID_36_" x="25.6" y="3.3" width="89" height="135"/>
						</defs>
						<clipPath id="SVGID_37_">
							<use xlink:href="#SVGID_36_" style="overflow:visible;"/>
						</clipPath>
						<rect x="21.5" y="-0.9" class="st17" width="97" height="143.2"/>
					</g>
				</g>
			</g>
			<g>
				<path id="SVGID_23_" class="st18" d="M70.3,59.1c3.7,0,6.6-1.7,8.7-5s3.1-7.9,3.1-13.7c0-11.5-4.1-17.3-12.2-17.3      c-3.7,0-6.6,1.6-8.7,4.7s-3.2,7.4-3.3,13c0,5.6,1.1,10.1,3.3,13.4C63.5,57.5,66.5,59.1,70.3,59.1z M70.3,118.3      c4.3,0,7.7-1.8,10.4-5.4c2.6-3.6,4-8.5,4-14.5c0-6.4-1.3-11.4-4-15.2s-6.1-5.6-10.5-5.6s-7.9,1.8-10.6,5.4      c-2.7,3.6-4,8.5-4,14.5c0,6.3,1.4,11.3,4.1,15.1C62.3,116.4,65.9,118.3,70.3,118.3z M46.1,67.1c-10.7-6.7-16-16-16-27.8      c0-10.5,3.6-19,10.9-25.5c7.2-6.5,16.8-9.7,28.5-9.7c12.4,0,22.2,3.5,29.5,10.4c7.2,6.9,10.9,15.3,10.9,25      c0,12.1-5.3,21.3-15.8,27.6c13,6.7,19.4,17.2,19.4,31.4c0,11.6-4,21-11.9,28.1c-8,7.1-18.6,10.6-31.8,10.6      c-12.8,0-23.2-3.6-31.2-10.8c-8-7.2-12-16.4-12-27.8C26.5,83.7,33,73.1,46.1,67.1z"/>
			</g>
		</g>
	</g>
</g>
<g>
	<g>
		<path id="SVGID_27_" class="st1" d="M113.3,92.4c11.4-11.4,11.3-29.9-0.1-41.3c-0.4-0.4-1.1-0.6-1.7-0.5c-0.6,0.2-1.1,0.6-1.2,1.2    c-0.2,0.6,0,1.3,0.5,1.7c10,10,10.1,26.3,0.1,36.4c-0.5,0.4-0.7,1.1-0.6,1.7s0.6,1.1,1.2,1.3c0.6,0.2,1.3,0,1.7-0.4L113.3,92.4"/>
	</g>
	<g>
		<defs>
			<path id="SVGID_38_" d="M113.3,92.4c11.4-11.4,11.3-29.9-0.1-41.3c-0.4-0.4-1.1-0.6-1.7-0.5c-0.6,0.2-1.1,0.6-1.2,1.2     c-0.2,0.6,0,1.3,0.5,1.7c10,10,10.1,26.3,0.1,36.4c-0.5,0.4-0.7,1.1-0.6,1.7s0.6,1.1,1.2,1.3c0.6,0.2,1.3,0,1.7-0.4L113.3,92.4"/>
		</defs>
		<clipPath id="SVGID_39_">
			<use xlink:href="#SVGID_38_" style="overflow:visible;"/>
		</clipPath>
		<g class="st19">
			<g>
				<defs>
					<path id="SVGID_40_" d="M70.3,59.1c3.7,0,6.6-1.7,8.7-5s3.1-7.9,3.1-13.7c0-11.5-4.1-17.3-12.2-17.3c-3.7,0-6.6,1.6-8.7,4.7       s-3.2,7.4-3.3,13c0,5.6,1.1,10.1,3.3,13.4C63.5,57.5,66.5,59.1,70.3,59.1z M70.3,118.3c4.3,0,7.7-1.8,10.4-5.4       c2.6-3.6,4-8.5,4-14.5c0-6.4-1.3-11.4-4-15.2s-6.1-5.6-10.5-5.6s-7.9,1.8-10.6,5.4c-2.7,3.6-4,8.5-4,14.5       c0,6.3,1.4,11.3,4.1,15.1C62.3,116.4,65.9,118.3,70.3,118.3z M46.1,67.1c-10.7-6.7-16-16-16-27.8c0-10.5,3.6-19,10.9-25.5       c7.2-6.5,16.8-9.7,28.5-9.7c12.4,0,22.2,3.5,29.5,10.4c7.2,6.9,10.9,15.3,10.9,25c0,12.1-5.3,21.3-15.8,27.6       c13,6.7,19.4,17.2,19.4,31.4c0,11.6-4,21-11.9,28.1c-8,7.1-18.6,10.6-31.8,10.6c-12.8,0-23.2-3.6-31.2-10.8       c-8-7.2-12-16.4-12-27.8C26.5,83.7,33,73.1,46.1,67.1z"/>
				</defs>
				<clipPath id="SVGID_41_">
					<use xlink:href="#SVGID_40_" style="overflow:visible;"/>
				</clipPath>
				<g class="st20">
					<g>
						<defs>
							<rect id="SVGID_42_" x="25.6" y="3.3" width="89" height="135"/>
						</defs>
						<clipPath id="SVGID_43_">
							<use xlink:href="#SVGID_42_" style="overflow:visible;"/>
						</clipPath>
						<rect x="21.5" y="-0.9" class="st21" width="97" height="143.2"/>
					</g>
				</g>
			</g>
		</g>
	</g>
</g>
<g>
	<g>
		<path id="SVGID_33_" class="st1" d="M107.5,56.8c-0.4-0.4-1.1-0.6-1.7-0.5c-0.6,0.2-1.1,0.6-1.2,1.2c-0.2,0.6,0,1.3,0.5,1.7    c6.9,6.9,6.9,18.1,0,24.9c-0.5,0.4-0.7,1.1-0.5,1.7s0.6,1.1,1.3,1.3c0.6,0.2,1.3,0,1.7-0.5c4-4,6.2-9.3,6.2-14.9    C113.7,66.2,111.5,60.8,107.5,56.8"/>
	</g>
	<g>
		<defs>
			<path id="SVGID_44_" d="M107.5,56.8c-0.4-0.4-1.1-0.6-1.7-0.5c-0.6,0.2-1.1,0.6-1.2,1.2c-0.2,0.6,0,1.3,0.5,1.7     c6.9,6.9,6.9,18.1,0,24.9c-0.5,0.4-0.7,1.1-0.5,1.7s0.6,1.1,1.3,1.3c0.6,0.2,1.3,0,1.7-0.5c4-4,6.2-9.3,6.2-14.9     C113.7,66.2,111.5,60.8,107.5,56.8"/>
		</defs>
		<clipPath id="SVGID_45_">
			<use xlink:href="#SVGID_44_" style="overflow:visible;"/>
		</clipPath>
		<g class="st22">
			<g>
				<defs>
					<rect id="SVGID_46_" x="23.6" y="1.3" width="93" height="139"/>
				</defs>
				<clipPath id="SVGID_47_">
					<use xlink:href="#SVGID_46_" style="overflow:visible;"/>
				</clipPath>
				<path class="st23" d="M108,102.9c1.7-1.7,1.7-4.4,0-6c-1.7-1.7-4.4-1.7-6,0c-16.9,16.9-44.3,16.9-61.2,0      c-1.1-1.1-2.7-1.5-4.1-1.1c-1.5,0.4-2.6,1.5-3,3s0,3.1,1.1,4.1C54.9,123.1,87.7,123.1,108,102.9"/>
			</g>
			<g>
				<defs>
					<rect id="SVGID_48_" x="23.6" y="1.3" width="93" height="139"/>
				</defs>
				<clipPath id="SVGID_49_">
					<use xlink:href="#SVGID_48_" style="overflow:visible;"/>
				</clipPath>
				<g class="st24">
					<g>
						<defs>
							<path id="SVGID_50_" d="M70.3,59.1c3.7,0,6.6-1.7,8.7-5s3.1-7.9,3.1-13.7c0-11.5-4.1-17.3-12.2-17.3c-3.7,0-6.6,1.6-8.7,4.7         s-3.2,7.4-3.3,13c0,5.6,1.1,10.1,3.3,13.4C63.5,57.5,66.5,59.1,70.3,59.1z M70.3,118.3c4.3,0,7.7-1.8,10.4-5.4         c2.6-3.6,4-8.5,4-14.5c0-6.4-1.3-11.4-4-15.2s-6.1-5.6-10.5-5.6s-7.9,1.8-10.6,5.4c-2.7,3.6-4,8.5-4,14.5         c0,6.3,1.4,11.3,4.1,15.1C62.3,116.4,65.9,118.3,70.3,118.3z M46.1,67.1c-10.7-6.7-16-16-16-27.8c0-10.5,3.6-19,10.9-25.5         c7.2-6.5,16.8-9.7,28.5-9.7c12.4,0,22.2,3.5,29.5,10.4c7.2,6.9,10.9,15.3,10.9,25c0,12.1-5.3,21.3-15.8,27.6         c13,6.7,19.4,17.2,19.4,31.4c0,11.6-4,21-11.9,28.1c-8,7.1-18.6,10.6-31.8,10.6c-12.8,0-23.2-3.6-31.2-10.8         c-8-7.2-12-16.4-12-27.8C26.5,83.7,33,73.1,46.1,67.1z"/>
						</defs>
						<clipPath id="SVGID_52_">
							<use xlink:href="#SVGID_50_" style="overflow:visible;"/>
						</clipPath>
						<g class="st25">
							<g>
								<defs>
									<rect id="SVGID_53_" x="25.6" y="3.3" width="89" height="135"/>
								</defs>
								<clipPath id="SVGID_54_">
									<use xlink:href="#SVGID_53_" style="overflow:visible;"/>
								</clipPath>
								<rect x="21.5" y="-0.9" class="st26" width="97" height="143.2"/>
							</g>
						</g>
					</g>
				</g>
			</g>
			<g>
				<defs>
					<rect id="SVGID_55_" x="23.6" y="1.3" width="93" height="139"/>
				</defs>
				<clipPath id="SVGID_56_">
					<use xlink:href="#SVGID_55_" style="overflow:visible;"/>
				</clipPath>
				<g class="st27">
					<g>
						<defs>
							<rect id="SVGID_57_" x="25.6" y="3.3" width="89" height="135"/>
						</defs>
						<clipPath id="SVGID_58_">
							<use xlink:href="#SVGID_57_" style="overflow:visible;"/>
						</clipPath>
						<g class="st28">
							<g>
								<g>
									<defs>
										<rect id="SVGID_59_" x="23.6" y="1.3" width="93" height="139"/>
									</defs>
									<clipPath id="SVGID_60_">
										<use xlink:href="#SVGID_59_" style="overflow:visible;"/>
									</clipPath>
									<g class="st29">
										<g>
											<defs>
												<path id="SVGID_61_" d="M70.3,59.1c3.7,0,6.6-1.7,8.7-5s3.1-7.9,3.1-13.7c0-11.5-4.1-17.3-12.2-17.3              c-3.7,0-6.6,1.6-8.7,4.7s-3.2,7.4-3.3,13c0,5.6,1.1,10.1,3.3,13.4C63.5,57.5,66.5,59.1,70.3,59.1z M70.3,118.3              c4.3,0,7.7-1.8,10.4-5.4c2.6-3.6,4-8.5,4-14.5c0-6.4-1.3-11.4-4-15.2s-6.1-5.6-10.5-5.6s-7.9,1.8-10.6,5.4              c-2.7,3.6-4,8.5-4,14.5c0,6.3,1.4,11.3,4.1,15.1C62.3,116.4,65.9,118.3,70.3,118.3z M46.1,67.1c-10.7-6.7-16-16-16-27.8              c0-10.5,3.6-19,10.9-25.5c7.2-6.5,16.8-9.7,28.5-9.7c12.4,0,22.2,3.5,29.5,10.4c7.2,6.9,10.9,15.3,10.9,25              c0,12.1-5.3,21.3-15.8,27.6c13,6.7,19.4,17.2,19.4,31.4c0,11.6-4,21-11.9,28.1c-8,7.1-18.6,10.6-31.8,10.6              c-12.8,0-23.2-3.6-31.2-10.8c-8-7.2-12-16.4-12-27.8C26.5,83.7,33,73.1,46.1,67.1z"/>
											</defs>
											<clipPath id="SVGID_62_">
												<use xlink:href="#SVGID_61_" style="overflow:visible;"/>
											</clipPath>
											<g class="st30">
												<g>
													<defs>
														<rect id="SVGID_63_" x="25.6" y="3.3" width="89" height="135"/>
													</defs>
													<clipPath id="SVGID_64_">
														<use xlink:href="#SVGID_63_" style="overflow:visible;"/>
													</clipPath>
													<rect x="21.5" y="-0.9" class="st31" width="97" height="143.2"/>
												</g>
											</g>
										</g>
									</g>
								</g>
								<g>
									<defs>
										<rect id="SVGID_65_" x="23.6" y="1.3" width="93" height="139"/>
									</defs>
									<clipPath id="SVGID_66_">
										<use xlink:href="#SVGID_65_" style="overflow:visible;"/>
									</clipPath>
									<g class="st32">
										<g>
											<defs>
												<rect id="SVGID_67_" x="25.6" y="3.3" width="89" height="135"/>
											</defs>
											<clipPath id="SVGID_68_">
												<use xlink:href="#SVGID_67_" style="overflow:visible;"/>
											</clipPath>
											<path class="st33" d="M70.3,59.1c3.7,0,6.6-1.7,8.7-5s3.1-7.9,3.1-13.7c0-11.5-4.1-17.3-12.2-17.3             c-3.7,0-6.6,1.6-8.7,4.7c-2.2,3.1-3.2,7.4-3.3,13c0,5.6,1.1,10.1,3.3,13.4C63.5,57.5,66.5,59.1,70.3,59.1z M70.3,118.3             c4.3,0,7.7-1.8,10.4-5.4c2.6-3.6,4-8.5,4-14.5c0-6.4-1.3-11.4-4-15.2c-2.6-3.7-6.1-5.6-10.5-5.6s-7.9,1.8-10.6,5.4             c-2.7,3.6-4,8.5-4,14.5c0,6.3,1.4,11.3,4.1,15.1C62.3,116.4,65.9,118.3,70.3,118.3z M46.1,67.1c-10.7-6.7-16-16-16-27.8             c0-10.5,3.6-19,10.9-25.5s16.8-9.7,28.5-9.7c12.4,0,22.2,3.5,29.5,10.4c7.2,6.9,10.9,15.3,10.9,25             c0,12.1-5.3,21.3-15.8,27.6c13,6.7,19.4,17.2,19.4,31.4c0,11.6-4,21-11.9,28.1c-8,7.1-18.6,10.6-31.8,10.6             c-12.8,0-23.2-3.6-31.2-10.8c-8-7.2-12-16.4-12-27.8C26.5,83.7,33,73.1,46.1,67.1z"/>
										</g>
									</g>
								</g>
							</g>
						</g>
					</g>
					<g>
						<defs>
							<rect id="SVGID_70_" x="25.6" y="3.3" width="89" height="135"/>
						</defs>
						<clipPath id="SVGID_71_">
							<use xlink:href="#SVGID_70_" style="overflow:visible;"/>
						</clipPath>
						<path class="st34" d="M70.3,59.1c3.7,0,6.6-1.7,8.7-5s3.1-7.9,3.1-13.7c0-11.5-4.1-17.3-12.2-17.3c-3.7,0-6.6,1.6-8.7,4.7        c-2.2,3.1-3.2,7.4-3.3,13c0,5.6,1.1,10.1,3.3,13.4C63.5,57.5,66.5,59.1,70.3,59.1z M70.3,118.3c4.3,0,7.7-1.8,10.4-5.4        c2.6-3.6,4-8.5,4-14.5c0-6.4-1.3-11.4-4-15.2c-2.6-3.7-6.1-5.6-10.5-5.6s-7.9,1.8-10.6,5.4c-2.7,3.6-4,8.5-4,14.5        c0,6.3,1.4,11.3,4.1,15.1C62.3,116.4,65.9,118.3,70.3,118.3z M46.1,67.1c-10.7-6.7-16-16-16-27.8c0-10.5,3.6-19,10.9-25.5        s16.8-9.7,28.5-9.7c12.4,0,22.2,3.5,29.5,10.4c7.2,6.9,10.9,15.3,10.9,25c0,12.1-5.3,21.3-15.8,27.6        c13,6.7,19.4,17.2,19.4,31.4c0,11.6-4,21-11.9,28.1c-8,7.1-18.6,10.6-31.8,10.6c-12.8,0-23.2-3.6-31.2-10.8        c-8-7.2-12-16.4-12-27.8C26.5,83.7,33,73.1,46.1,67.1z"/>
					</g>
				</g>
			</g>
		</g>
	</g>
</g>
<g>
	<g>
		<path id="SVGID_51_" class="st1" d="M101.9,62.6c-0.7-0.7-1.8-0.7-2.5,0s-0.7,1.8,0,2.5c3.7,3.7,3.7,9.8,0,13.5    c-0.6,0.7-0.6,1.8,0,2.4c0.7,0.7,1.7,0.7,2.4,0C107,75.9,107,67.7,101.9,62.6"/>
	</g>
	<g>
		<defs>
			<path id="SVGID_72_" d="M101.9,62.6c-0.7-0.7-1.8-0.7-2.5,0s-0.7,1.8,0,2.5c3.7,3.7,3.7,9.8,0,13.5c-0.6,0.7-0.6,1.8,0,2.4     c0.7,0.7,1.7,0.7,2.4,0C107,75.9,107,67.7,101.9,62.6"/>
		</defs>
		<clipPath id="SVGID_73_">
			<use xlink:href="#SVGID_72_" style="overflow:visible;"/>
		</clipPath>
		<g class="st35">
			<g>
				<defs>
					<rect id="SVGID_74_" x="23.6" y="1.3" width="93" height="139"/>
				</defs>
				<clipPath id="SVGID_75_">
					<use xlink:href="#SVGID_74_" style="overflow:visible;"/>
				</clipPath>
				<g class="st36">
					<g>
						<defs>
							<path id="SVGID_76_" d="M70.3,59.1c3.7,0,6.6-1.7,8.7-5s3.1-7.9,3.1-13.7c0-11.5-4.1-17.3-12.2-17.3c-3.7,0-6.6,1.6-8.7,4.7         s-3.2,7.4-3.3,13c0,5.6,1.1,10.1,3.3,13.4C63.5,57.5,66.5,59.1,70.3,59.1z M70.3,118.3c4.3,0,7.7-1.8,10.4-5.4         c2.6-3.6,4-8.5,4-14.5c0-6.4-1.3-11.4-4-15.2s-6.1-5.6-10.5-5.6s-7.9,1.8-10.6,5.4c-2.7,3.6-4,8.5-4,14.5         c0,6.3,1.4,11.3,4.1,15.1C62.3,116.4,65.9,118.3,70.3,118.3z M46.1,67.1c-10.7-6.7-16-16-16-27.8c0-10.5,3.6-19,10.9-25.5         c7.2-6.5,16.8-9.7,28.5-9.7c12.4,0,22.2,3.5,29.5,10.4c7.2,6.9,10.9,15.3,10.9,25c0,12.1-5.3,21.3-15.8,27.6         c13,6.7,19.4,17.2,19.4,31.4c0,11.6-4,21-11.9,28.1c-8,7.1-18.6,10.6-31.8,10.6c-12.8,0-23.2-3.6-31.2-10.8         c-8-7.2-12-16.4-12-27.8C26.5,83.7,33,73.1,46.1,67.1z"/>
						</defs>
						<clipPath id="SVGID_77_">
							<use xlink:href="#SVGID_76_" style="overflow:visible;"/>
						</clipPath>
						<g class="st37">
							<g>
								<defs>
									<rect id="SVGID_78_" x="25.6" y="3.3" width="89" height="135"/>
								</defs>
								<clipPath id="SVGID_79_">
									<use xlink:href="#SVGID_78_" style="overflow:visible;"/>
								</clipPath>
								<rect x="21.5" y="-0.9" class="st38" width="97" height="143.2"/>
							</g>
						</g>
					</g>
				</g>
			</g>
			<g>
				<defs>
					<rect id="SVGID_80_" x="23.6" y="1.3" width="93" height="139"/>
				</defs>
				<clipPath id="SVGID_81_">
					<use xlink:href="#SVGID_80_" style="overflow:visible;"/>
				</clipPath>
				<g class="st39">
					<g>
						<defs>
							<rect id="SVGID_82_" x="25.6" y="3.3" width="89" height="135"/>
						</defs>
						<clipPath id="SVGID_83_">
							<use xlink:href="#SVGID_82_" style="overflow:visible;"/>
						</clipPath>
						<g class="st40">
							<g>
								<g>
									<defs>
										<rect id="SVGID_84_" x="23.6" y="1.3" width="93" height="139"/>
									</defs>
									<clipPath id="SVGID_85_">
										<use xlink:href="#SVGID_84_" style="overflow:visible;"/>
									</clipPath>
									<g class="st41">
										<g>
											<defs>
												<path id="SVGID_86_" d="M70.3,59.1c3.7,0,6.6-1.7,8.7-5s3.1-7.9,3.1-13.7c0-11.5-4.1-17.3-12.2-17.3              c-3.7,0-6.6,1.6-8.7,4.7s-3.2,7.4-3.3,13c0,5.6,1.1,10.1,3.3,13.4C63.5,57.5,66.5,59.1,70.3,59.1z M70.3,118.3              c4.3,0,7.7-1.8,10.4-5.4c2.6-3.6,4-8.5,4-14.5c0-6.4-1.3-11.4-4-15.2s-6.1-5.6-10.5-5.6s-7.9,1.8-10.6,5.4              c-2.7,3.6-4,8.5-4,14.5c0,6.3,1.4,11.3,4.1,15.1C62.3,116.4,65.9,118.3,70.3,118.3z M46.1,67.1c-10.7-6.7-16-16-16-27.8              c0-10.5,3.6-19,10.9-25.5c7.2-6.5,16.8-9.7,28.5-9.7c12.4,0,22.2,3.5,29.5,10.4c7.2,6.9,10.9,15.3,10.9,25              c0,12.1-5.3,21.3-15.8,27.6c13,6.7,19.4,17.2,19.4,31.4c0,11.6-4,21-11.9,28.1c-8,7.1-18.6,10.6-31.8,10.6              c-12.8,0-23.2-3.6-31.2-10.8c-8-7.2-12-16.4-12-27.8C26.5,83.7,33,73.1,46.1,67.1z"/>
											</defs>
											<clipPath id="SVGID_88_">
												<use xlink:href="#SVGID_86_" style="overflow:visible;"/>
											</clipPath>
											<g class="st42">
												<g>
													<defs>
														<rect id="SVGID_89_" x="25.6" y="3.3" width="89" height="135"/>
													</defs>
													<clipPath id="SVGID_90_">
														<use xlink:href="#SVGID_89_" style="overflow:visible;"/>
													</clipPath>
													<rect x="21.5" y="-0.9" class="st43" width="97" height="143.2"/>
												</g>
											</g>
										</g>
									</g>
								</g>
								<g>
									<defs>
										<rect id="SVGID_91_" x="23.6" y="1.3" width="93" height="139"/>
									</defs>
									<clipPath id="SVGID_92_">
										<use xlink:href="#SVGID_91_" style="overflow:visible;"/>
									</clipPath>
									<g class="st44">
										<g>
											<defs>
												<rect id="SVGID_93_" x="25.6" y="3.3" width="89" height="135"/>
											</defs>
											<clipPath id="SVGID_94_">
												<use xlink:href="#SVGID_93_" style="overflow:visible;"/>
											</clipPath>
											<path class="st45" d="M70.3,59.1c3.7,0,6.6-1.7,8.7-5s3.1-7.9,3.1-13.7c0-11.5-4.1-17.3-12.2-17.3             c-3.7,0-6.6,1.6-8.7,4.7c-2.2,3.1-3.2,7.4-3.3,13c0,5.6,1.1,10.1,3.3,13.4C63.5,57.5,66.5,59.1,70.3,59.1z M70.3,118.3             c4.3,0,7.7-1.8,10.4-5.4c2.6-3.6,4-8.5,4-14.5c0-6.4-1.3-11.4-4-15.2c-2.6-3.7-6.1-5.6-10.5-5.6s-7.9,1.8-10.6,5.4             c-2.7,3.6-4,8.5-4,14.5c0,6.3,1.4,11.3,4.1,15.1C62.3,116.4,65.9,118.3,70.3,118.3z M46.1,67.1c-10.7-6.7-16-16-16-27.8             c0-10.5,3.6-19,10.9-25.5s16.8-9.7,28.5-9.7c12.4,0,22.2,3.5,29.5,10.4c7.2,6.9,10.9,15.3,10.9,25             c0,12.1-5.3,21.3-15.8,27.6c13,6.7,19.4,17.2,19.4,31.4c0,11.6-4,21-11.9,28.1c-8,7.1-18.6,10.6-31.8,10.6             c-12.8,0-23.2-3.6-31.2-10.8c-8-7.2-12-16.4-12-27.8C26.5,83.7,33,73.1,46.1,67.1z"/>
										</g>
									</g>
								</g>
							</g>
						</g>
					</g>
					<g>
						<defs>
							<rect id="SVGID_95_" x="25.6" y="3.3" width="89" height="135"/>
						</defs>
						<clipPath id="SVGID_96_">
							<use xlink:href="#SVGID_95_" style="overflow:visible;"/>
						</clipPath>
						<path class="st46" d="M70.3,59.1c3.7,0,6.6-1.7,8.7-5s3.1-7.9,3.1-13.7c0-11.5-4.1-17.3-12.2-17.3c-3.7,0-6.6,1.6-8.7,4.7        c-2.2,3.1-3.2,7.4-3.3,13c0,5.6,1.1,10.1,3.3,13.4C63.5,57.5,66.5,59.1,70.3,59.1z M70.3,118.3c4.3,0,7.7-1.8,10.4-5.4        c2.6-3.6,4-8.5,4-14.5c0-6.4-1.3-11.4-4-15.2c-2.6-3.7-6.1-5.6-10.5-5.6s-7.9,1.8-10.6,5.4c-2.7,3.6-4,8.5-4,14.5        c0,6.3,1.4,11.3,4.1,15.1C62.3,116.4,65.9,118.3,70.3,118.3z M46.1,67.1c-10.7-6.7-16-16-16-27.8c0-10.5,3.6-19,10.9-25.5        s16.8-9.7,28.5-9.7c12.4,0,22.2,3.5,29.5,10.4c7.2,6.9,10.9,15.3,10.9,25c0,12.1-5.3,21.3-15.8,27.6        c13,6.7,19.4,17.2,19.4,31.4c0,11.6-4,21-11.9,28.1c-8,7.1-18.6,10.6-31.8,10.6c-12.8,0-23.2-3.6-31.2-10.8        c-8-7.2-12-16.4-12-27.8C26.5,83.7,33,73.1,46.1,67.1z"/>
					</g>
				</g>
			</g>
		</g>
	</g>
</g>
<g>
	<g>
		<path id="SVGID_69_" class="st1" d="M34.4,38.3c-1.6,1.7-1.6,4.3,0.1,6c1.7,1.7,4.3,1.7,6,0.1c16.9-16.9,44.3-16.9,61.2,0    c1.1,1.1,2.7,1.6,4.2,1.2c1.5-0.4,2.7-1.6,3.1-3.1s-0.1-3.1-1.2-4.2C87.5,18.1,54.7,18.1,34.4,38.3"/>
	</g>
	<g>
		<defs>
			<path id="SVGID_97_" d="M34.4,38.3c-1.6,1.7-1.6,4.3,0.1,6c1.7,1.7,4.3,1.7,6,0.1c16.9-16.9,44.3-16.9,61.2,0     c1.1,1.1,2.7,1.6,4.2,1.2c1.5-0.4,2.7-1.6,3.1-3.1s-0.1-3.1-1.2-4.2C87.5,18.1,54.7,18.1,34.4,38.3"/>
		</defs>
		<clipPath id="SVGID_98_">
			<use xlink:href="#SVGID_97_" style="overflow:visible;"/>
		</clipPath>
		<g class="st47">
			<g>
				<defs>
					<rect id="SVGID_99_" x="23.6" y="1.3" width="93" height="139"/>
				</defs>
				<clipPath id="SVGID_100_">
					<use xlink:href="#SVGID_99_" style="overflow:visible;"/>
				</clipPath>
				<g class="st48">
					<g>
						<defs>
							<path id="SVGID_101_" d="M70.3,59.1c3.7,0,6.6-1.7,8.7-5s3.1-7.9,3.1-13.7c0-11.5-4.1-17.3-12.2-17.3c-3.7,0-6.6,1.6-8.7,4.7         s-3.2,7.4-3.3,13c0,5.6,1.1,10.1,3.3,13.4C63.5,57.5,66.5,59.1,70.3,59.1z M70.3,118.3c4.3,0,7.7-1.8,10.4-5.4         c2.6-3.6,4-8.5,4-14.5c0-6.4-1.3-11.4-4-15.2s-6.1-5.6-10.5-5.6s-7.9,1.8-10.6,5.4c-2.7,3.6-4,8.5-4,14.5         c0,6.3,1.4,11.3,4.1,15.1C62.3,116.4,65.9,118.3,70.3,118.3z M46.1,67.1c-10.7-6.7-16-16-16-27.8c0-10.5,3.6-19,10.9-25.5         c7.2-6.5,16.8-9.7,28.5-9.7c12.4,0,22.2,3.5,29.5,10.4c7.2,6.9,10.9,15.3,10.9,25c0,12.1-5.3,21.3-15.8,27.6         c13,6.7,19.4,17.2,19.4,31.4c0,11.6-4,21-11.9,28.1c-8,7.1-18.6,10.6-31.8,10.6c-12.8,0-23.2-3.6-31.2-10.8         c-8-7.2-12-16.4-12-27.8C26.5,83.7,33,73.1,46.1,67.1z"/>
						</defs>
						<clipPath id="SVGID_102_">
							<use xlink:href="#SVGID_101_" style="overflow:visible;"/>
						</clipPath>
						<g class="st49">
							<g>
								<defs>
									<rect id="SVGID_103_" x="25.6" y="3.3" width="89" height="135"/>
								</defs>
								<clipPath id="SVGID_104_">
									<use xlink:href="#SVGID_103_" style="overflow:visible;"/>
								</clipPath>
								<rect x="21.5" y="-0.9" class="st50" width="97" height="143.2"/>
							</g>
						</g>
					</g>
				</g>
			</g>
			<g>
				<defs>
					<rect id="SVGID_106_" x="23.6" y="1.3" width="93" height="139"/>
				</defs>
				<clipPath id="SVGID_107_">
					<use xlink:href="#SVGID_106_" style="overflow:visible;"/>
				</clipPath>
				<g class="st51">
					<g>
						<defs>
							<rect id="SVGID_108_" x="25.6" y="3.3" width="89" height="135"/>
						</defs>
						<clipPath id="SVGID_109_">
							<use xlink:href="#SVGID_108_" style="overflow:visible;"/>
						</clipPath>
						<g class="st52">
							<g>
								<g>
									<defs>
										<rect id="SVGID_110_" x="23.6" y="1.3" width="93" height="139"/>
									</defs>
									<clipPath id="SVGID_111_">
										<use xlink:href="#SVGID_110_" style="overflow:visible;"/>
									</clipPath>
									<g class="st53">
										<g>
											<defs>
												<path id="SVGID_112_" d="M70.3,59.1c3.7,0,6.6-1.7,8.7-5s3.1-7.9,3.1-13.7c0-11.5-4.1-17.3-12.2-17.3              c-3.7,0-6.6,1.6-8.7,4.7s-3.2,7.4-3.3,13c0,5.6,1.1,10.1,3.3,13.4C63.5,57.5,66.5,59.1,70.3,59.1z M70.3,118.3              c4.3,0,7.7-1.8,10.4-5.4c2.6-3.6,4-8.5,4-14.5c0-6.4-1.3-11.4-4-15.2s-6.1-5.6-10.5-5.6s-7.9,1.8-10.6,5.4              c-2.7,3.6-4,8.5-4,14.5c0,6.3,1.4,11.3,4.1,15.1C62.3,116.4,65.9,118.3,70.3,118.3z M46.1,67.1c-10.7-6.7-16-16-16-27.8              c0-10.5,3.6-19,10.9-25.5c7.2-6.5,16.8-9.7,28.5-9.7c12.4,0,22.2,3.5,29.5,10.4c7.2,6.9,10.9,15.3,10.9,25              c0,12.1-5.3,21.3-15.8,27.6c13,6.7,19.4,17.2,19.4,31.4c0,11.6-4,21-11.9,28.1c-8,7.1-18.6,10.6-31.8,10.6              c-12.8,0-23.2-3.6-31.2-10.8c-8-7.2-12-16.4-12-27.8C26.5,83.7,33,73.1,46.1,67.1z"/>
											</defs>
											<clipPath id="SVGID_113_">
												<use xlink:href="#SVGID_112_" style="overflow:visible;"/>
											</clipPath>
											<g class="st54">
												<g>
													<defs>
														<rect id="SVGID_114_" x="25.6" y="3.3" width="89" height="135"/>
													</defs>
													<clipPath id="SVGID_115_">
														<use xlink:href="#SVGID_114_" style="overflow:visible;"/>
													</clipPath>
													<rect x="21.5" y="-0.9" class="st55" width="97" height="143.2"/>
												</g>
											</g>
										</g>
									</g>
								</g>
								<g>
									<defs>
										<rect id="SVGID_116_" x="23.6" y="1.3" width="93" height="139"/>
									</defs>
									<clipPath id="SVGID_117_">
										<use xlink:href="#SVGID_116_" style="overflow:visible;"/>
									</clipPath>
									<g class="st56">
										<g>
											<defs>
												<rect id="SVGID_118_" x="25.6" y="3.3" width="89" height="135"/>
											</defs>
											<clipPath id="SVGID_119_">
												<use xlink:href="#SVGID_118_" style="overflow:visible;"/>
											</clipPath>
											<path class="st57" d="M70.3,59.1c3.7,0,6.6-1.7,8.7-5s3.1-7.9,3.1-13.7c0-11.5-4.1-17.3-12.2-17.3             c-3.7,0-6.6,1.6-8.7,4.7c-2.2,3.1-3.2,7.4-3.3,13c0,5.6,1.1,10.1,3.3,13.4C63.5,57.5,66.5,59.1,70.3,59.1z M70.3,118.3             c4.3,0,7.7-1.8,10.4-5.4c2.6-3.6,4-8.5,4-14.5c0-6.4-1.3-11.4-4-15.2c-2.6-3.7-6.1-5.6-10.5-5.6s-7.9,1.8-10.6,5.4             c-2.7,3.6-4,8.5-4,14.5c0,6.3,1.4,11.3,4.1,15.1C62.3,116.4,65.9,118.3,70.3,118.3z M46.1,67.1c-10.7-6.7-16-16-16-27.8             c0-10.5,3.6-19,10.9-25.5s16.8-9.7,28.5-9.7c12.4,0,22.2,3.5,29.5,10.4c7.2,6.9,10.9,15.3,10.9,25             c0,12.1-5.3,21.3-15.8,27.6c13,6.7,19.4,17.2,19.4,31.4c0,11.6-4,21-11.9,28.1c-8,7.1-18.6,10.6-31.8,10.6             c-12.8,0-23.2-3.6-31.2-10.8c-8-7.2-12-16.4-12-27.8C26.5,83.7,33,73.1,46.1,67.1z"/>
										</g>
									</g>
								</g>
							</g>
						</g>
					</g>
					<g>
						<defs>
							<rect id="SVGID_120_" x="25.6" y="3.3" width="89" height="135"/>
						</defs>
						<clipPath id="SVGID_121_">
							<use xlink:href="#SVGID_120_" style="overflow:visible;"/>
						</clipPath>
						<path class="st58" d="M70.3,59.1c3.7,0,6.6-1.7,8.7-5s3.1-7.9,3.1-13.7c0-11.5-4.1-17.3-12.2-17.3c-3.7,0-6.6,1.6-8.7,4.7        c-2.2,3.1-3.2,7.4-3.3,13c0,5.6,1.1,10.1,3.3,13.4C63.5,57.5,66.5,59.1,70.3,59.1z M70.3,118.3c4.3,0,7.7-1.8,10.4-5.4        c2.6-3.6,4-8.5,4-14.5c0-6.4-1.3-11.4-4-15.2c-2.6-3.7-6.1-5.6-10.5-5.6s-7.9,1.8-10.6,5.4c-2.7,3.6-4,8.5-4,14.5        c0,6.3,1.4,11.3,4.1,15.1C62.3,116.4,65.9,118.3,70.3,118.3z M46.1,67.1c-10.7-6.7-16-16-16-27.8c0-10.5,3.6-19,10.9-25.5        s16.8-9.7,28.5-9.7c12.4,0,22.2,3.5,29.5,10.4c7.2,6.9,10.9,15.3,10.9,25c0,12.1-5.3,21.3-15.8,27.6        c13,6.7,19.4,17.2,19.4,31.4c0,11.6-4,21-11.9,28.1c-8,7.1-18.6,10.6-31.8,10.6c-12.8,0-23.2-3.6-31.2-10.8        c-8-7.2-12-16.4-12-27.8C26.5,83.7,33,73.1,46.1,67.1z"/>
					</g>
				</g>
			</g>
		</g>
	</g>
</g>
<g>
	<g>
		<path id="SVGID_87_" class="st1" d="M48.7,52c-1.7,1.7-1.7,4.4,0,6c1.7,1.7,4.4,1.7,6,0c9.1-9.1,24-9.1,33.1,0    c1.7,1.7,4.4,1.7,6,0c1.7-1.7,1.7-4.4,0-6c-6-6-14.1-9.4-22.6-9.4S54.7,46,48.7,52"/>
	</g>
	<g>
		<defs>
			<path id="SVGID_122_" d="M48.7,52c-1.7,1.7-1.7,4.4,0,6c1.7,1.7,4.4,1.7,6,0c9.1-9.1,24-9.1,33.1,0c1.7,1.7,4.4,1.7,6,0     c1.7-1.7,1.7-4.4,0-6c-6-6-14.1-9.4-22.6-9.4S54.7,46,48.7,52"/>
		</defs>
		<clipPath id="SVGID_124_">
			<use xlink:href="#SVGID_122_" style="overflow:visible;"/>
		</clipPath>
		<g class="st59">
			<g>
				<defs>
					<rect id="SVGID_125_" x="23.6" y="1.3" width="93" height="139"/>
				</defs>
				<clipPath id="SVGID_126_">
					<use xlink:href="#SVGID_125_" style="overflow:visible;"/>
				</clipPath>
				<g class="st60">
					<g>
						<defs>
							<path id="SVGID_127_" d="M70.3,59.1c3.7,0,6.6-1.7,8.7-5s3.1-7.9,3.1-13.7c0-11.5-4.1-17.3-12.2-17.3c-3.7,0-6.6,1.6-8.7,4.7         s-3.2,7.4-3.3,13c0,5.6,1.1,10.1,3.3,13.4C63.5,57.5,66.5,59.1,70.3,59.1z M70.3,118.3c4.3,0,7.7-1.8,10.4-5.4         c2.6-3.6,4-8.5,4-14.5c0-6.4-1.3-11.4-4-15.2s-6.1-5.6-10.5-5.6s-7.9,1.8-10.6,5.4c-2.7,3.6-4,8.5-4,14.5         c0,6.3,1.4,11.3,4.1,15.1C62.3,116.4,65.9,118.3,70.3,118.3z M46.1,67.1c-10.7-6.7-16-16-16-27.8c0-10.5,3.6-19,10.9-25.5         c7.2-6.5,16.8-9.7,28.5-9.7c12.4,0,22.2,3.5,29.5,10.4c7.2,6.9,10.9,15.3,10.9,25c0,12.1-5.3,21.3-15.8,27.6         c13,6.7,19.4,17.2,19.4,31.4c0,11.6-4,21-11.9,28.1c-8,7.1-18.6,10.6-31.8,10.6c-12.8,0-23.2-3.6-31.2-10.8         c-8-7.2-12-16.4-12-27.8C26.5,83.7,33,73.1,46.1,67.1z"/>
						</defs>
						<clipPath id="SVGID_128_">
							<use xlink:href="#SVGID_127_" style="overflow:visible;"/>
						</clipPath>
						<g class="st61">
							<g>
								<defs>
									<rect id="SVGID_129_" x="25.6" y="3.3" width="89" height="135"/>
								</defs>
								<clipPath id="SVGID_130_">
									<use xlink:href="#SVGID_129_" style="overflow:visible;"/>
								</clipPath>
								<rect x="21.5" y="-0.9" class="st62" width="97" height="143.2"/>
							</g>
						</g>
					</g>
				</g>
			</g>
			<g>
				<defs>
					<rect id="SVGID_131_" x="23.6" y="1.3" width="93" height="139"/>
				</defs>
				<clipPath id="SVGID_132_">
					<use xlink:href="#SVGID_131_" style="overflow:visible;"/>
				</clipPath>
				<g class="st63">
					<g>
						<defs>
							<rect id="SVGID_133_" x="25.6" y="3.3" width="89" height="135"/>
						</defs>
						<clipPath id="SVGID_134_">
							<use xlink:href="#SVGID_133_" style="overflow:visible;"/>
						</clipPath>
						<g class="st64">
							<g>
								<g>
									<defs>
										<rect id="SVGID_136_" x="23.6" y="1.3" width="93" height="139"/>
									</defs>
									<clipPath id="SVGID_137_">
										<use xlink:href="#SVGID_136_" style="overflow:visible;"/>
									</clipPath>
									<g class="st65">
										<g>
											<defs>
												<path id="SVGID_138_" d="M70.3,59.1c3.7,0,6.6-1.7,8.7-5s3.1-7.9,3.1-13.7c0-11.5-4.1-17.3-12.2-17.3              c-3.7,0-6.6,1.6-8.7,4.7s-3.2,7.4-3.3,13c0,5.6,1.1,10.1,3.3,13.4C63.5,57.5,66.5,59.1,70.3,59.1z M70.3,118.3              c4.3,0,7.7-1.8,10.4-5.4c2.6-3.6,4-8.5,4-14.5c0-6.4-1.3-11.4-4-15.2s-6.1-5.6-10.5-5.6s-7.9,1.8-10.6,5.4              c-2.7,3.6-4,8.5-4,14.5c0,6.3,1.4,11.3,4.1,15.1C62.3,116.4,65.9,118.3,70.3,118.3z M46.1,67.1c-10.7-6.7-16-16-16-27.8              c0-10.5,3.6-19,10.9-25.5c7.2-6.5,16.8-9.7,28.5-9.7c12.4,0,22.2,3.5,29.5,10.4c7.2,6.9,10.9,15.3,10.9,25              c0,12.1-5.3,21.3-15.8,27.6c13,6.7,19.4,17.2,19.4,31.4c0,11.6-4,21-11.9,28.1c-8,7.1-18.6,10.6-31.8,10.6              c-12.8,0-23.2-3.6-31.2-10.8c-8-7.2-12-16.4-12-27.8C26.5,83.7,33,73.1,46.1,67.1z"/>
											</defs>
											<clipPath id="SVGID_139_">
												<use xlink:href="#SVGID_138_" style="overflow:visible;"/>
											</clipPath>
											<g class="st66">
												<g>
													<defs>
														<rect id="SVGID_140_" x="25.6" y="3.3" width="89" height="135"/>
													</defs>
													<clipPath id="SVGID_142_">
														<use xlink:href="#SVGID_140_" style="overflow:visible;"/>
													</clipPath>
													<rect x="21.5" y="-0.9" class="st67" width="97" height="143.2"/>
												</g>
											</g>
										</g>
									</g>
								</g>
								<g>
									<defs>
										<rect id="SVGID_143_" x="23.6" y="1.3" width="93" height="139"/>
									</defs>
									<clipPath id="SVGID_144_">
										<use xlink:href="#SVGID_143_" style="overflow:visible;"/>
									</clipPath>
									<g class="st68">
										<g>
											<defs>
												<rect id="SVGID_145_" x="25.6" y="3.3" width="89" height="135"/>
											</defs>
											<clipPath id="SVGID_146_">
												<use xlink:href="#SVGID_145_" style="overflow:visible;"/>
											</clipPath>
											<path class="st69" d="M70.3,59.1c3.7,0,6.6-1.7,8.7-5s3.1-7.9,3.1-13.7c0-11.5-4.1-17.3-12.2-17.3             c-3.7,0-6.6,1.6-8.7,4.7c-2.2,3.1-3.2,7.4-3.3,13c0,5.6,1.1,10.1,3.3,13.4C63.5,57.5,66.5,59.1,70.3,59.1z M70.3,118.3             c4.3,0,7.7-1.8,10.4-5.4c2.6-3.6,4-8.5,4-14.5c0-6.4-1.3-11.4-4-15.2c-2.6-3.7-6.1-5.6-10.5-5.6s-7.9,1.8-10.6,5.4             c-2.7,3.6-4,8.5-4,14.5c0,6.3,1.4,11.3,4.1,15.1C62.3,116.4,65.9,118.3,70.3,118.3z M46.1,67.1c-10.7-6.7-16-16-16-27.8             c0-10.5,3.6-19,10.9-25.5s16.8-9.7,28.5-9.7c12.4,0,22.2,3.5,29.5,10.4c7.2,6.9,10.9,15.3,10.9,25             c0,12.1-5.3,21.3-15.8,27.6c13,6.7,19.4,17.2,19.4,31.4c0,11.6-4,21-11.9,28.1c-8,7.1-18.6,10.6-31.8,10.6             c-12.8,0-23.2-3.6-31.2-10.8c-8-7.2-12-16.4-12-27.8C26.5,83.7,33,73.1,46.1,67.1z"/>
										</g>
									</g>
								</g>
							</g>
						</g>
					</g>
					<g>
						<defs>
							<rect id="SVGID_148_" x="25.6" y="3.3" width="89" height="135"/>
						</defs>
						<clipPath id="SVGID_149_">
							<use xlink:href="#SVGID_148_" style="overflow:visible;"/>
						</clipPath>
						<path class="st70" d="M70.3,59.1c3.7,0,6.6-1.7,8.7-5s3.1-7.9,3.1-13.7c0-11.5-4.1-17.3-12.2-17.3c-3.7,0-6.6,1.6-8.7,4.7        c-2.2,3.1-3.2,7.4-3.3,13c0,5.6,1.1,10.1,3.3,13.4C63.5,57.5,66.5,59.1,70.3,59.1z M70.3,118.3c4.3,0,7.7-1.8,10.4-5.4        c2.6-3.6,4-8.5,4-14.5c0-6.4-1.3-11.4-4-15.2c-2.6-3.7-6.1-5.6-10.5-5.6s-7.9,1.8-10.6,5.4c-2.7,3.6-4,8.5-4,14.5        c0,6.3,1.4,11.3,4.1,15.1C62.3,116.4,65.9,118.3,70.3,118.3z M46.1,67.1c-10.7-6.7-16-16-16-27.8c0-10.5,3.6-19,10.9-25.5        s16.8-9.7,28.5-9.7c12.4,0,22.2,3.5,29.5,10.4c7.2,6.9,10.9,15.3,10.9,25c0,12.1-5.3,21.3-15.8,27.6        c13,6.7,19.4,17.2,19.4,31.4c0,11.6-4,21-11.9,28.1c-8,7.1-18.6,10.6-31.8,10.6c-12.8,0-23.2-3.6-31.2-10.8        c-8-7.2-12-16.4-12-27.8C26.5,83.7,33,73.1,46.1,67.1z"/>
					</g>
				</g>
			</g>
		</g>
	</g>
</g>
<g>
	<g>
		<path id="SVGID_105_" class="st1" d="M20.7,117.1C48.7,145,94,144.9,122,117c1.2-1.1,1.7-2.7,1.3-4.2c-0.4-1.5-1.6-2.7-3.1-3.1    s-3.2,0.1-4.2,1.3c-24.6,24.6-64.5,24.7-89.2,0.1c-1.6-1.7-4.3-1.9-6-0.3s-1.9,4.3-0.3,6C20.6,116.9,20.6,117,20.7,117.1"/>
	</g>
	<g>
		<defs>
			<path id="SVGID_150_" d="M20.7,117.1C48.7,145,94,144.9,122,117c1.2-1.1,1.7-2.7,1.3-4.2c-0.4-1.5-1.6-2.7-3.1-3.1     s-3.2,0.1-4.2,1.3c-24.6,24.6-64.5,24.7-89.2,0.1c-1.6-1.7-4.3-1.9-6-0.3s-1.9,4.3-0.3,6C20.6,116.9,20.6,117,20.7,117.1"/>
		</defs>
		<clipPath id="SVGID_151_">
			<use xlink:href="#SVGID_150_" style="overflow:visible;"/>
		</clipPath>
		<g class="st71">
			<g>
				<defs>
					<rect id="SVGID_152_" x="23.6" y="1.3" width="93" height="139"/>
				</defs>
				<clipPath id="SVGID_154_">
					<use xlink:href="#SVGID_152_" style="overflow:visible;"/>
				</clipPath>
				<g class="st72">
					<g>
						<defs>
							<path id="SVGID_156_" d="M70.3,59.1c3.7,0,6.6-1.7,8.7-5s3.1-7.9,3.1-13.7c0-11.5-4.1-17.3-12.2-17.3c-3.7,0-6.6,1.6-8.7,4.7         s-3.2,7.4-3.3,13c0,5.6,1.1,10.1,3.3,13.4C63.5,57.5,66.5,59.1,70.3,59.1z M70.3,118.3c4.3,0,7.7-1.8,10.4-5.4         c2.6-3.6,4-8.5,4-14.5c0-6.4-1.3-11.4-4-15.2s-6.1-5.6-10.5-5.6s-7.9,1.8-10.6,5.4c-2.7,3.6-4,8.5-4,14.5         c0,6.3,1.4,11.3,4.1,15.1C62.3,116.4,65.9,118.3,70.3,118.3z M46.1,67.1c-10.7-6.7-16-16-16-27.8c0-10.5,3.6-19,10.9-25.5         c7.2-6.5,16.8-9.7,28.5-9.7c12.4,0,22.2,3.5,29.5,10.4c7.2,6.9,10.9,15.3,10.9,25c0,12.1-5.3,21.3-15.8,27.6         c13,6.7,19.4,17.2,19.4,31.4c0,11.6-4,21-11.9,28.1c-8,7.1-18.6,10.6-31.8,10.6c-12.8,0-23.2-3.6-31.2-10.8         c-8-7.2-12-16.4-12-27.8C26.5,83.7,33,73.1,46.1,67.1z"/>
						</defs>
						<clipPath id="SVGID_157_">
							<use xlink:href="#SVGID_156_" style="overflow:visible;"/>
						</clipPath>
						<g class="st73">
							<g>
								<defs>
									<rect id="SVGID_158_" x="25.6" y="3.3" width="89" height="135"/>
								</defs>
								<clipPath id="SVGID_159_">
									<use xlink:href="#SVGID_158_" style="overflow:visible;"/>
								</clipPath>
								<rect x="21.5" y="-0.9" class="st74" width="97" height="143.2"/>
							</g>
						</g>
					</g>
				</g>
			</g>
			<g>
				<defs>
					<rect id="SVGID_160_" x="23.6" y="1.3" width="93" height="139"/>
				</defs>
				<clipPath id="SVGID_161_">
					<use xlink:href="#SVGID_160_" style="overflow:visible;"/>
				</clipPath>
				<g class="st75">
					<g>
						<defs>
							<rect id="SVGID_162_" x="25.6" y="3.3" width="89" height="135"/>
						</defs>
						<clipPath id="SVGID_163_">
							<use xlink:href="#SVGID_162_" style="overflow:visible;"/>
						</clipPath>
						<g class="st76">
							<g>
								<g>
									<defs>
										<rect id="SVGID_164_" x="23.6" y="1.3" width="93" height="139"/>
									</defs>
									<clipPath id="SVGID_165_">
										<use xlink:href="#SVGID_164_" style="overflow:visible;"/>
									</clipPath>
									<g class="st77">
										<g>
											<defs>
												<path id="SVGID_166_" d="M70.3,59.1c3.7,0,6.6-1.7,8.7-5s3.1-7.9,3.1-13.7c0-11.5-4.1-17.3-12.2-17.3              c-3.7,0-6.6,1.6-8.7,4.7s-3.2,7.4-3.3,13c0,5.6,1.1,10.1,3.3,13.4C63.5,57.5,66.5,59.1,70.3,59.1z M70.3,118.3              c4.3,0,7.7-1.8,10.4-5.4c2.6-3.6,4-8.5,4-14.5c0-6.4-1.3-11.4-4-15.2s-6.1-5.6-10.5-5.6s-7.9,1.8-10.6,5.4              c-2.7,3.6-4,8.5-4,14.5c0,6.3,1.4,11.3,4.1,15.1C62.3,116.4,65.9,118.3,70.3,118.3z M46.1,67.1c-10.7-6.7-16-16-16-27.8              c0-10.5,3.6-19,10.9-25.5c7.2-6.5,16.8-9.7,28.5-9.7c12.4,0,22.2,3.5,29.5,10.4c7.2,6.9,10.9,15.3,10.9,25              c0,12.1-5.3,21.3-15.8,27.6c13,6.7,19.4,17.2,19.4,31.4c0,11.6-4,21-11.9,28.1c-8,7.1-18.6,10.6-31.8,10.6              c-12.8,0-23.2-3.6-31.2-10.8c-8-7.2-12-16.4-12-27.8C26.5,83.7,33,73.1,46.1,67.1z"/>
											</defs>
											<clipPath id="SVGID_167_">
												<use xlink:href="#SVGID_166_" style="overflow:visible;"/>
											</clipPath>
											<g class="st78">
												<g>
													<defs>
														<rect id="SVGID_168_" x="25.6" y="3.3" width="89" height="135"/>
													</defs>
													<clipPath id="SVGID_169_">
														<use xlink:href="#SVGID_168_" style="overflow:visible;"/>
													</clipPath>
													<rect x="21.5" y="-0.9" class="st79" width="97" height="143.2"/>
												</g>
											</g>
										</g>
									</g>
								</g>
								<g>
									<defs>
										<rect id="SVGID_170_" x="23.6" y="1.3" width="93" height="139"/>
									</defs>
									<clipPath id="SVGID_171_">
										<use xlink:href="#SVGID_170_" style="overflow:visible;"/>
									</clipPath>
									<g class="st80">
										<g>
											<defs>
												<rect id="SVGID_172_" x="25.6" y="3.3" width="89" height="135"/>
											</defs>
											<clipPath id="SVGID_173_">
												<use xlink:href="#SVGID_172_" style="overflow:visible;"/>
											</clipPath>
											<path class="st81" d="M70.3,59.1c3.7,0,6.6-1.7,8.7-5s3.1-7.9,3.1-13.7c0-11.5-4.1-17.3-12.2-17.3             c-3.7,0-6.6,1.6-8.7,4.7c-2.2,3.1-3.2,7.4-3.3,13c0,5.6,1.1,10.1,3.3,13.4C63.5,57.5,66.5,59.1,70.3,59.1z M70.3,118.3             c4.3,0,7.7-1.8,10.4-5.4c2.6-3.6,4-8.5,4-14.5c0-6.4-1.3-11.4-4-15.2c-2.6-3.7-6.1-5.6-10.5-5.6s-7.9,1.8-10.6,5.4             c-2.7,3.6-4,8.5-4,14.5c0,6.3,1.4,11.3,4.1,15.1C62.3,116.4,65.9,118.3,70.3,118.3z M46.1,67.1c-10.7-6.7-16-16-16-27.8             c0-10.5,3.6-19,10.9-25.5s16.8-9.7,28.5-9.7c12.4,0,22.2,3.5,29.5,10.4c7.2,6.9,10.9,15.3,10.9,25             c0,12.1-5.3,21.3-15.8,27.6c13,6.7,19.4,17.2,19.4,31.4c0,11.6-4,21-11.9,28.1c-8,7.1-18.6,10.6-31.8,10.6             c-12.8,0-23.2-3.6-31.2-10.8c-8-7.2-12-16.4-12-27.8C26.5,83.7,33,73.1,46.1,67.1z"/>
										</g>
									</g>
								</g>
							</g>
						</g>
					</g>
					<g>
						<defs>
							<rect id="SVGID_174_" x="25.6" y="3.3" width="89" height="135"/>
						</defs>
						<clipPath id="SVGID_175_">
							<use xlink:href="#SVGID_174_" style="overflow:visible;"/>
						</clipPath>
						<path class="st82" d="M70.3,59.1c3.7,0,6.6-1.7,8.7-5s3.1-7.9,3.1-13.7c0-11.5-4.1-17.3-12.2-17.3c-3.7,0-6.6,1.6-8.7,4.7        c-2.2,3.1-3.2,7.4-3.3,13c0,5.6,1.1,10.1,3.3,13.4C63.5,57.5,66.5,59.1,70.3,59.1z M70.3,118.3c4.3,0,7.7-1.8,10.4-5.4        c2.6-3.6,4-8.5,4-14.5c0-6.4-1.3-11.4-4-15.2c-2.6-3.7-6.1-5.6-10.5-5.6s-7.9,1.8-10.6,5.4c-2.7,3.6-4,8.5-4,14.5        c0,6.3,1.4,11.3,4.1,15.1C62.3,116.4,65.9,118.3,70.3,118.3z M46.1,67.1c-10.7-6.7-16-16-16-27.8c0-10.5,3.6-19,10.9-25.5        s16.8-9.7,28.5-9.7c12.4,0,22.2,3.5,29.5,10.4c7.2,6.9,10.9,15.3,10.9,25c0,12.1-5.3,21.3-15.8,27.6        c13,6.7,19.4,17.2,19.4,31.4c0,11.6-4,21-11.9,28.1c-8,7.1-18.6,10.6-31.8,10.6c-12.8,0-23.2-3.6-31.2-10.8        c-8-7.2-12-16.4-12-27.8C26.5,83.7,33,73.1,46.1,67.1z"/>
					</g>
				</g>
			</g>
		</g>
	</g>
</g>
<g>
	<g>
		<path id="SVGID_123_" class="st1" d="M108,102.9c1.7-1.7,1.7-4.4,0-6c-1.7-1.7-4.4-1.7-6,0c-16.9,16.9-44.3,16.9-61.2,0    c-1.1-1.1-2.7-1.5-4.1-1.1c-1.5,0.4-2.6,1.5-3,3s0,3.1,1.1,4.1C54.9,123.1,87.7,123.1,108,102.9"/>
	</g>
	<g>
		<defs>
			<path id="SVGID_176_" d="M108,102.9c1.7-1.7,1.7-4.4,0-6c-1.7-1.7-4.4-1.7-6,0c-16.9,16.9-44.3,16.9-61.2,0     c-1.1-1.1-2.7-1.5-4.1-1.1c-1.5,0.4-2.6,1.5-3,3s0,3.1,1.1,4.1C54.9,123.1,87.7,123.1,108,102.9"/>
		</defs>
		<clipPath id="SVGID_177_">
			<use xlink:href="#SVGID_176_" style="overflow:visible;"/>
		</clipPath>
		<g class="st83">
			<g>
				<defs>
					<rect id="SVGID_178_" x="25.6" y="3.3" width="89" height="135"/>
				</defs>
				<clipPath id="SVGID_179_">
					<use xlink:href="#SVGID_178_" style="overflow:visible;"/>
				</clipPath>
				<g class="st84">
					<g>
						<g>
							<defs>
								<rect id="SVGID_180_" x="23.6" y="1.3" width="93" height="139"/>
							</defs>
							<clipPath id="SVGID_181_">
								<use xlink:href="#SVGID_180_" style="overflow:visible;"/>
							</clipPath>
							<g class="st85">
								<g>
									<defs>
										<path id="SVGID_182_" d="M70.3,59.1c3.7,0,6.6-1.7,8.7-5s3.1-7.9,3.1-13.7c0-11.5-4.1-17.3-12.2-17.3            c-3.7,0-6.6,1.6-8.7,4.7s-3.2,7.4-3.3,13c0,5.6,1.1,10.1,3.3,13.4C63.5,57.5,66.5,59.1,70.3,59.1z M70.3,118.3            c4.3,0,7.7-1.8,10.4-5.4c2.6-3.6,4-8.5,4-14.5c0-6.4-1.3-11.4-4-15.2s-6.1-5.6-10.5-5.6s-7.9,1.8-10.6,5.4            c-2.7,3.6-4,8.5-4,14.5c0,6.3,1.4,11.3,4.1,15.1C62.3,116.4,65.9,118.3,70.3,118.3z M46.1,67.1c-10.7-6.7-16-16-16-27.8            c0-10.5,3.6-19,10.9-25.5c7.2-6.5,16.8-9.7,28.5-9.7c12.4,0,22.2,3.5,29.5,10.4c7.2,6.9,10.9,15.3,10.9,25            c0,12.1-5.3,21.3-15.8,27.6c13,6.7,19.4,17.2,19.4,31.4c0,11.6-4,21-11.9,28.1c-8,7.1-18.6,10.6-31.8,10.6            c-12.8,0-23.2-3.6-31.2-10.8c-8-7.2-12-16.4-12-27.8C26.5,83.7,33,73.1,46.1,67.1z"/>
									</defs>
									<clipPath id="SVGID_183_">
										<use xlink:href="#SVGID_182_" style="overflow:visible;"/>
									</clipPath>
									<g class="st86">
										<g>
											<defs>
												<rect id="SVGID_184_" x="25.6" y="3.3" width="89" height="135"/>
											</defs>
											<clipPath id="SVGID_185_">
												<use xlink:href="#SVGID_184_" style="overflow:visible;"/>
											</clipPath>
											<rect x="21.5" y="-0.9" class="st87" width="97" height="143.2"/>
										</g>
									</g>
								</g>
							</g>
						</g>
						<g>
							<defs>
								<rect id="SVGID_186_" x="23.6" y="1.3" width="93" height="139"/>
							</defs>
							<clipPath id="SVGID_187_">
								<use xlink:href="#SVGID_186_" style="overflow:visible;"/>
							</clipPath>
							<g class="st88">
								<g>
									<defs>
										<rect id="SVGID_188_" x="25.6" y="3.3" width="89" height="135"/>
									</defs>
									<clipPath id="SVGID_189_">
										<use xlink:href="#SVGID_188_" style="overflow:visible;"/>
									</clipPath>
									<path class="st89" d="M70.3,59.1c3.7,0,6.6-1.7,8.7-5s3.1-7.9,3.1-13.7c0-11.5-4.1-17.3-12.2-17.3c-3.7,0-6.6,1.6-8.7,4.7           c-2.2,3.1-3.2,7.4-3.3,13c0,5.6,1.1,10.1,3.3,13.4C63.5,57.5,66.5,59.1,70.3,59.1z M70.3,118.3c4.3,0,7.7-1.8,10.4-5.4           c2.6-3.6,4-8.5,4-14.5c0-6.4-1.3-11.4-4-15.2c-2.6-3.7-6.1-5.6-10.5-5.6s-7.9,1.8-10.6,5.4c-2.7,3.6-4,8.5-4,14.5           c0,6.3,1.4,11.3,4.1,15.1C62.3,116.4,65.9,118.3,70.3,118.3z M46.1,67.1c-10.7-6.7-16-16-16-27.8c0-10.5,3.6-19,10.9-25.5           s16.8-9.7,28.5-9.7c12.4,0,22.2,3.5,29.5,10.4c7.2,6.9,10.9,15.3,10.9,25c0,12.1-5.3,21.3-15.8,27.6           c13,6.7,19.4,17.2,19.4,31.4c0,11.6-4,21-11.9,28.1c-8,7.1-18.6,10.6-31.8,10.6c-12.8,0-23.2-3.6-31.2-10.8           c-8-7.2-12-16.4-12-27.8C26.5,83.7,33,73.1,46.1,67.1z"/>
								</g>
							</g>
						</g>
					</g>
				</g>
			</g>
			<g>
				<defs>
					<rect id="SVGID_190_" x="25.6" y="3.3" width="89" height="135"/>
				</defs>
				<clipPath id="SVGID_191_">
					<use xlink:href="#SVGID_190_" style="overflow:visible;"/>
				</clipPath>
				<path class="st90" d="M70.3,59.1c3.7,0,6.6-1.7,8.7-5s3.1-7.9,3.1-13.7c0-11.5-4.1-17.3-12.2-17.3c-3.7,0-6.6,1.6-8.7,4.7      c-2.2,3.1-3.2,7.4-3.3,13c0,5.6,1.1,10.1,3.3,13.4C63.5,57.5,66.5,59.1,70.3,59.1z M70.3,118.3c4.3,0,7.7-1.8,10.4-5.4      c2.6-3.6,4-8.5,4-14.5c0-6.4-1.3-11.4-4-15.2c-2.6-3.7-6.1-5.6-10.5-5.6s-7.9,1.8-10.6,5.4c-2.7,3.6-4,8.5-4,14.5      c0,6.3,1.4,11.3,4.1,15.1C62.3,116.4,65.9,118.3,70.3,118.3z M46.1,67.1c-10.7-6.7-16-16-16-27.8c0-10.5,3.6-19,10.9-25.5      s16.8-9.7,28.5-9.7c12.4,0,22.2,3.5,29.5,10.4c7.2,6.9,10.9,15.3,10.9,25c0,12.1-5.3,21.3-15.8,27.6c13,6.7,19.4,17.2,19.4,31.4      c0,11.6-4,21-11.9,28.1c-8,7.1-18.6,10.6-31.8,10.6c-12.8,0-23.2-3.6-31.2-10.8c-8-7.2-12-16.4-12-27.8      C26.5,83.7,33,73.1,46.1,67.1z"/>
			</g>
		</g>
	</g>
</g>
<g>
	<g>
		<path id="SVGID_135_" class="st1" d="M38.8,81c0.7,0.7,1.8,0.7,2.5,0s0.7-1.8,0-2.5c-1.8-1.8-2.8-4.2-2.8-6.7s1-5,2.8-6.7    c0.6-0.7,0.6-1.8,0-2.4c-0.7-0.7-1.7-0.7-2.4,0C36.3,65,35,68.3,35,71.8C35,75.2,36.3,78.6,38.8,81"/>
	</g>
	<g>
		<defs>
			<path id="SVGID_192_" d="M38.8,81c0.7,0.7,1.8,0.7,2.5,0s0.7-1.8,0-2.5c-1.8-1.8-2.8-4.2-2.8-6.7s1-5,2.8-6.7     c0.6-0.7,0.6-1.8,0-2.4c-0.7-0.7-1.7-0.7-2.4,0C36.3,65,35,68.3,35,71.8C35,75.2,36.3,78.6,38.8,81"/>
		</defs>
		<clipPath id="SVGID_193_">
			<use xlink:href="#SVGID_192_" style="overflow:visible;"/>
		</clipPath>
		<g class="st91">
			<g>
				<defs>
					<path id="SVGID_194_" d="M70.3,59.1c3.7,0,6.6-1.7,8.7-5s3.1-7.9,3.1-13.7c0-11.5-4.1-17.3-12.2-17.3c-3.7,0-6.6,1.6-8.7,4.7       s-3.2,7.4-3.3,13c0,5.6,1.1,10.1,3.3,13.4C63.5,57.5,66.5,59.1,70.3,59.1z M70.3,118.3c4.3,0,7.7-1.8,10.4-5.4       c2.6-3.6,4-8.5,4-14.5c0-6.4-1.3-11.4-4-15.2s-6.1-5.6-10.5-5.6s-7.9,1.8-10.6,5.4c-2.7,3.6-4,8.5-4,14.5       c0,6.3,1.4,11.3,4.1,15.1C62.3,116.4,65.9,118.3,70.3,118.3z M46.1,67.1c-10.7-6.7-16-16-16-27.8c0-10.5,3.6-19,10.9-25.5       c7.2-6.5,16.8-9.7,28.5-9.7c12.4,0,22.2,3.5,29.5,10.4c7.2,6.9,10.9,15.3,10.9,25c0,12.1-5.3,21.3-15.8,27.6       c13,6.7,19.4,17.2,19.4,31.4c0,11.6-4,21-11.9,28.1c-8,7.1-18.6,10.6-31.8,10.6c-12.8,0-23.2-3.6-31.2-10.8       c-8-7.2-12-16.4-12-27.8C26.5,83.7,33,73.1,46.1,67.1z"/>
				</defs>
				<clipPath id="SVGID_195_">
					<use xlink:href="#SVGID_194_" style="overflow:visible;"/>
				</clipPath>
				<g class="st92">
					<g>
						<defs>
							<rect id="SVGID_196_" x="25.6" y="3.3" width="89" height="135"/>
						</defs>
						<clipPath id="SVGID_197_">
							<use xlink:href="#SVGID_196_" style="overflow:visible;"/>
						</clipPath>
						<rect x="21.5" y="-0.9" class="st93" width="97" height="143.2"/>
					</g>
				</g>
			</g>
		</g>
	</g>
</g>
<g>
	<g>
		<path id="SVGID_141_" class="st1" d="M33.2,86.7c0.7,0.7,1.8,0.7,2.5,0s0.7-1.8,0-2.5c-6.9-6.9-6.9-18.1,0-24.9    c0.7-0.7,0.7-1.8,0-2.5s-1.8-0.7-2.5,0C24.9,65.1,24.9,78.5,33.2,86.7"/>
	</g>
	<g>
		<defs>
			<path id="SVGID_198_" d="M33.2,86.7c0.7,0.7,1.8,0.7,2.5,0s0.7-1.8,0-2.5c-6.9-6.9-6.9-18.1,0-24.9c0.7-0.7,0.7-1.8,0-2.5     s-1.8-0.7-2.5,0C24.9,65.1,24.9,78.5,33.2,86.7"/>
		</defs>
		<clipPath id="SVGID_199_">
			<use xlink:href="#SVGID_198_" style="overflow:visible;"/>
		</clipPath>
		<g class="st94">
			<g>
				<defs>
					<path id="SVGID_200_" d="M70.3,59.1c3.7,0,6.6-1.7,8.7-5s3.1-7.9,3.1-13.7c0-11.5-4.1-17.3-12.2-17.3c-3.7,0-6.6,1.6-8.7,4.7       s-3.2,7.4-3.3,13c0,5.6,1.1,10.1,3.3,13.4C63.5,57.5,66.5,59.1,70.3,59.1z M70.3,118.3c4.3,0,7.7-1.8,10.4-5.4       c2.6-3.6,4-8.5,4-14.5c0-6.4-1.3-11.4-4-15.2s-6.1-5.6-10.5-5.6s-7.9,1.8-10.6,5.4c-2.7,3.6-4,8.5-4,14.5       c0,6.3,1.4,11.3,4.1,15.1C62.3,116.4,65.9,118.3,70.3,118.3z M46.1,67.1c-10.7-6.7-16-16-16-27.8c0-10.5,3.6-19,10.9-25.5       c7.2-6.5,16.8-9.7,28.5-9.7c12.4,0,22.2,3.5,29.5,10.4c7.2,6.9,10.9,15.3,10.9,25c0,12.1-5.3,21.3-15.8,27.6       c13,6.7,19.4,17.2,19.4,31.4c0,11.6-4,21-11.9,28.1c-8,7.1-18.6,10.6-31.8,10.6c-12.8,0-23.2-3.6-31.2-10.8       c-8-7.2-12-16.4-12-27.8C26.5,83.7,33,73.1,46.1,67.1z"/>
				</defs>
				<clipPath id="SVGID_201_">
					<use xlink:href="#SVGID_200_" style="overflow:visible;"/>
				</clipPath>
				<g class="st95">
					<g>
						<defs>
							<rect id="SVGID_202_" x="25.6" y="3.3" width="89" height="135"/>
						</defs>
						<clipPath id="SVGID_203_">
							<use xlink:href="#SVGID_202_" style="overflow:visible;"/>
						</clipPath>
						<rect x="21.5" y="-0.9" class="st96" width="97" height="143.2"/>
					</g>
				</g>
			</g>
		</g>
	</g>
</g>
<g>
	<g>
		<path id="SVGID_147_" class="st97" d="M27.4,51.2C16,62.6,16.1,81.1,27.5,92.5c0.7,0.7,1.8,0.7,2.5,0s0.7-1.8,0-2.5    c-10-10-10.1-26.3-0.1-36.4c0.5-0.4,0.7-1.1,0.6-1.7c-0.1-0.6-0.6-1.1-1.2-1.3s-1.3,0-1.7,0.4L27.4,51.2"/>
	</g>
	<g>
		<defs>
			<path id="SVGID_204_" d="M27.4,51.2C16,62.6,16.1,81.1,27.5,92.5c0.7,0.7,1.8,0.7,2.5,0s0.7-1.8,0-2.5c-10-10-10.1-26.3-0.1-36.4     c0.5-0.4,0.7-1.1,0.6-1.7c-0.1-0.6-0.6-1.1-1.2-1.3s-1.3,0-1.7,0.4L27.4,51.2"/>
		</defs>
		<clipPath id="SVGID_205_">
			<use xlink:href="#SVGID_204_" style="overflow:visible;"/>
		</clipPath>
		<g class="st98">
			<g>
				<defs>
					<path id="SVGID_206_" d="M70.3,59.1c3.7,0,6.6-1.7,8.7-5s3.1-7.9,3.1-13.7c0-11.5-4.1-17.3-12.2-17.3c-3.7,0-6.6,1.6-8.7,4.7       s-3.2,7.4-3.3,13c0,5.6,1.1,10.1,3.3,13.4C63.5,57.5,66.5,59.1,70.3,59.1z M70.3,118.3c4.3,0,7.7-1.8,10.4-5.4       c2.6-3.6,4-8.5,4-14.5c0-6.4-1.3-11.4-4-15.2s-6.1-5.6-10.5-5.6s-7.9,1.8-10.6,5.4c-2.7,3.6-4,8.5-4,14.5       c0,6.3,1.4,11.3,4.1,15.1C62.3,116.4,65.9,118.3,70.3,118.3z M46.1,67.1c-10.7-6.7-16-16-16-27.8c0-10.5,3.6-19,10.9-25.5       c7.2-6.5,16.8-9.7,28.5-9.7c12.4,0,22.2,3.5,29.5,10.4c7.2,6.9,10.9,15.3,10.9,25c0,12.1-5.3,21.3-15.8,27.6       c13,6.7,19.4,17.2,19.4,31.4c0,11.6-4,21-11.9,28.1c-8,7.1-18.6,10.6-31.8,10.6c-12.8,0-23.2-3.6-31.2-10.8       c-8-7.2-12-16.4-12-27.8C26.5,83.7,33,73.1,46.1,67.1z"/>
				</defs>
				<clipPath id="SVGID_207_">
					<use xlink:href="#SVGID_206_" style="overflow:visible;"/>
				</clipPath>
				<g class="st99">
					<g>
						<defs>
							<rect id="SVGID_208_" x="25.6" y="3.3" width="89" height="135"/>
						</defs>
						<clipPath id="SVGID_209_">
							<use xlink:href="#SVGID_208_" style="overflow:visible;"/>
						</clipPath>
						<rect x="21.5" y="-0.9" class="st100" width="97" height="143.2"/>
					</g>
				</g>
			</g>
		</g>
	</g>
</g>
<g>
	<g>
		<path id="SVGID_153_" d="M71.9,73.5c0.8,0,1.7,0.2,2.4,0.6c0.6,0.4,0.9,1.1,0.9,1.8c0,1-0.3,1.6-0.9,2s-1.6,0.6-3,0.6h-3v-5H71.9z     M71,65c0.7,0,1.4,0.2,2,0.6c0.5,0.4,0.7,1,0.7,1.6s-0.2,1.2-0.7,1.6c-0.6,0.5-1.3,0.7-2,0.7h-2.8V65H71z M62.9,82.4h10.4    c2.5,0,4.3-0.6,5.6-1.7c1.3-1.2,2-2.8,1.9-4.5c0-1.2-0.4-2.5-1.2-3.4c-0.9-1-2-1.7-3.4-2c1.9-1,2.9-2.4,2.9-4.2    c0-1.4-0.6-2.7-1.9-3.7c-1.2-1.1-3-1.6-5.2-1.6h-9.2L62.9,82.4L62.9,82.4z"/>
	</g>
	<g>
		<defs>
			<path id="SVGID_210_" d="M71.9,73.5c0.8,0,1.7,0.2,2.4,0.6c0.6,0.4,0.9,1.1,0.9,1.8c0,1-0.3,1.6-0.9,2s-1.6,0.6-3,0.6h-3v-5H71.9     z M71,65c0.7,0,1.4,0.2,2,0.6c0.5,0.4,0.7,1,0.7,1.6s-0.2,1.2-0.7,1.6c-0.6,0.5-1.3,0.7-2,0.7h-2.8V65H71z M62.9,82.4h10.4     c2.5,0,4.3-0.6,5.6-1.7c1.3-1.2,2-2.8,1.9-4.5c0-1.2-0.4-2.5-1.2-3.4c-0.9-1-2-1.7-3.4-2c1.9-1,2.9-2.4,2.9-4.2     c0-1.4-0.6-2.7-1.9-3.7c-1.2-1.1-3-1.6-5.2-1.6h-9.2L62.9,82.4L62.9,82.4z"/>
		</defs>
		<clipPath id="SVGID_211_">
			<use xlink:href="#SVGID_210_" style="overflow:visible;"/>
		</clipPath>
		<g class="st101">
			<g>
				<rect id="SVGID_155_" x="-54.4" y="-15.7" width="250" height="175"/>
			</g>
			<g>
				<defs>
					<rect id="SVGID_212_" x="-54.4" y="-15.7" width="250" height="175"/>
				</defs>
				<clipPath id="SVGID_213_">
					<use xlink:href="#SVGID_212_" style="overflow:visible;"/>
				</clipPath>
				<rect x="57.9" y="56.1" class="st102" width="27.9" height="31.3"/>
			</g>
		</g>
	</g>
</g>
<g>
	<path class="st0" d="M75.2,75.9c0-0.7-0.3-1.4-0.9-1.8c-0.7-0.5-1.5-0.7-2.4-0.6h-3.7v4.3c0.6-0.1,1.2-0.1,1.9-0.1   c1.3,0,2.6,0.2,3.7,0.5c0.2-0.1,0.3-0.1,0.4-0.2C74.8,77.5,75.2,76.9,75.2,75.9z"/>
	<path class="st0" d="M73,68.9c0.5-0.4,0.7-1,0.7-1.6s-0.2-1.2-0.7-1.6c-0.6-0.5-1.3-0.7-2-0.6h-2.8v4.6H71   C71.7,69.6,72.4,69.4,73,68.9z"/>
	<path d="M68.2,73.5h3.7c0.8,0,1.7,0.2,2.4,0.6c0.6,0.4,0.9,1.1,0.9,1.8c0,1-0.3,1.6-0.9,2C74.2,78,74,78,73.9,78.1   c1.8,0.5,3.4,1.4,4.8,2.7c0.1-0.1,0.2-0.1,0.3-0.2c1.3-1.2,2-2.8,1.9-4.5c0-1.2-0.4-2.5-1.2-3.4c-0.9-1-2-1.7-3.4-2   c1.9-1,2.9-2.4,2.9-4.2c0-1.4-0.6-2.7-1.9-3.7c-1.2-1.1-3-1.6-5.2-1.6h-9.2v18.5c1.6-1,3.3-1.7,5.3-1.9   C68.2,77.8,68.2,73.5,68.2,73.5z M68.2,65H71c0.7,0,1.4,0.2,2,0.6c0.5,0.4,0.7,1,0.7,1.6s-0.2,1.2-0.7,1.6c-0.6,0.5-1.3,0.7-2,0.7   h-2.8V65z"/>
	<path class="st1" d="M62.9,82.4h10.4c2.3,0,4.1-0.5,5.3-1.5c-1.4-1.3-3-2.2-4.8-2.7c-0.6,0.2-1.5,0.4-2.6,0.4h-3v-0.8   c-1.9,0.3-3.7,0.9-5.3,1.9L62.9,82.4L62.9,82.4z"/>
</g>
<path class="st0" d="M73,68.9c0.5-0.4,0.7-1,0.7-1.6s-0.2-1.2-0.7-1.6c-0.6-0.5-1.3-0.7-2-0.6h-2.8v4.6H71  C71.7,69.6,72.4,69.4,73,68.9z"/>
<path class="st0" d="M71.2,78.5c1,0,1.7-0.1,2.3-0.3c-1.1-0.3-2.2-0.4-3.4-0.4c-0.7,0-1.3,0.1-2,0.1v0.6  C68.1,78.5,71.2,78.5,71.2,78.5z"/>
<path class="st0" d="M62.9,82.4L62.9,82.4V80c-1.2,0.8-2.2,1.9-3.2,3.1c-2.6,3.6-4,8.4-3.9,14.4c0,6.2,1.4,11.3,4,15  c2.7,3.7,6.2,5.6,10.5,5.6l0,0c4.2,0,7.6-1.8,10.2-5.3c2.6-3.6,3.9-8.4,3.9-14.4c0-6.3-1.3-11.3-3.9-15c-0.6-0.9-1.3-1.7-2-2.3  c-1.3,0.9-3,1.4-5.2,1.4L62.9,82.4L62.9,82.4z"/>
<path class="st0" d="M74.2,77.9c0.6-0.4,0.9-1.1,0.9-2c0-0.7-0.3-1.4-0.9-1.8c-0.7-0.5-1.5-0.7-2.4-0.6h-3.7v3.9  c0.6-0.1,1.3-0.1,2-0.1C71.6,77.3,73,77.5,74.2,77.9z"/>
<path class="st103" d="M68.2,77.9v-0.5c-1.9,0.3-3.7,0.9-5.3,1.9V80C64.5,78.9,66.2,78.2,68.2,77.9z"/>
<path class="st103" d="M74.2,77.9L74.2,77.9c-0.2,0.1-0.4,0.2-0.7,0.3c1.8,0.5,3.5,1.4,5,2.7c0.1-0.1,0.3-0.2,0.4-0.3  C77.5,79.4,75.9,78.5,74.2,77.9z"/>
</svg>