<?xml version="1.0" encoding="UTF-8"?>
<svg width="376px" height="480px" viewBox="0 0 376 480" version="1.1" xmlns="http://www.w3.org/2000/svg" xmlns:xlink="http://www.w3.org/1999/xlink">
    <title>卷帘</title>
    <g id="页面-1" stroke="none" stroke-width="1" fill="none" fill-rule="evenodd">
        <g id="Roller-Blind500备份" transform="translate(-62.000000, -10.000000)" fill="#000000">
            <g id="卷帘" transform="translate(62.000000, 10.000000)">
                <path d="M357.816309,-5.81353147e-13 C367.457222,-5.81353147e-13 375.272727,7.80757815 375.272727,17.4560785 L375.272727,462.543922 C375.272727,472.184647 367.4562,480 357.816309,480 L17.4564185,480 C7.81550479,480 0,472.192422 0,462.543922 L0,17.4560785 C0,7.81535253 7.81652743,-5.81353147e-13 17.4564185,-5.81353147e-13 L357.816309,-5.81353147e-13 Z M357.81912,462.546435 L357.81912,17.4535654 L17.4536075,17.4535654 L17.4536075,462.546435 L357.81912,462.546435 Z" id="Rectangle-4" fill-rule="nonzero"/>
                <path d="M0,13.3288853 C0,5.96754522 5.97040921,-5.81353147e-13 13.3285589,-5.81353147e-13 L361.944168,-5.81353147e-13 C369.305328,-5.81353147e-13 375.272727,5.96220901 375.272727,13.3288853 L375.272727,265.943842 C375.272727,273.305182 369.308648,279.272727 361.94089,279.272727 L188.069534,279.272727 L13.3371492,279.272727 C5.97124509,279.272727 0,273.310518 0,265.943842 L0,13.3288853 Z" id="Rectangle-4"/>
            </g>
        </g>
    </g>
</svg>